<svg xmlns="http://www.w3.org/2000/svg" width="1280" height="640" viewBox="-153.21 -85.77 327.18 163.59" role="img" aria-label="iLevyTate/reposense rendered by RepoSense: 58 files across 21 folders, 4.9 MB, mostly Image, JavaScript, XML.">
<title>iLevyTate/reposense rendered by RepoSense: 58 files across 21 folders, 4.9 MB, mostly Image, JavaScript, XML.</title>
<defs>
<radialGradient id="bg" cx="50%" cy="38%" r="80%">
<stop offset="0%" stop-color="#f7f9fd"/><stop offset="100%" stop-color="#e8edf6"/>
</radialGradient>
<radialGradient id="haze" cx="50%" cy="50%" r="50%">
<stop offset="0%" stop-color="#c9d9f2" stop-opacity=".4"/><stop offset="100%" stop-color="#c9d9f2" stop-opacity="0"/>
</radialGradient>
<linearGradient id="fr0" x1="0" y1="1" x2="0" y2="0"><stop offset="0%" stop-color="#88824f"/><stop offset="100%" stop-color="#e3d87b"/></linearGradient><linearGradient id="fl0" x1="0" y1="1" x2="0" y2="0"><stop offset="0%" stop-color="#605c38"/><stop offset="100%" stop-color="#b1a960"/></linearGradient><linearGradient id="ft0" x1="0" y1="1" x2="0" y2="0"><stop offset="0%" stop-color="#eade7c"/><stop offset="100%" stop-color="#ffff92"/></linearGradient><linearGradient id="fr1" x1="0" y1="1" x2="0" y2="0"><stop offset="0%" stop-color="#467f6f"/><stop offset="100%" stop-color="#6fd3b3"/></linearGradient><linearGradient id="fl1" x1="0" y1="1" x2="0" y2="0"><stop offset="0%" stop-color="#325a4f"/><stop offset="100%" stop-color="#57a58c"/></linearGradient><linearGradient id="ft1" x1="0" y1="1" x2="0" y2="0"><stop offset="0%" stop-color="#71d8b7"/><stop offset="100%" stop-color="#87ffdb"/></linearGradient><linearGradient id="fr2" x1="0" y1="1" x2="0" y2="0"><stop offset="0%" stop-color="#567875"/><stop offset="100%" stop-color="#8cc7be"/></linearGradient><linearGradient id="fl2" x1="0" y1="1" x2="0" y2="0"><stop offset="0%" stop-color="#3d5553"/><stop offset="100%" stop-color="#6d9b94"/></linearGradient><linearGradient id="ft2" x1="0" y1="1" x2="0" y2="0"><stop offset="0%" stop-color="#8fccc2"/><stop offset="100%" stop-color="#abf6e9"/></linearGradient><linearGradient id="fr3" x1="0" y1="1" x2="0" y2="0"><stop offset="0%" stop-color="#757a46"/><stop offset="100%" stop-color="#c3ca6b"/></linearGradient><linearGradient id="fl3" x1="0" y1="1" x2="0" y2="0"><stop offset="0%" stop-color="#535732"/><stop offset="100%" stop-color="#989e54"/></linearGradient><linearGradient id="ft3" x1="0" y1="1" x2="0" y2="0"><stop offset="0%" stop-color="#c8cf6c"/><stop offset="100%" stop-color="#f2fb7e"/></linearGradient><linearGradient id="fr4" x1="0" y1="1" x2="0" y2="0"><stop offset="0%" stop-color="#885c67"/><stop offset="100%" stop-color="#e394a5"/></linearGradient><linearGradient id="fl4" x1="0" y1="1" x2="0" y2="0"><stop offset="0%" stop-color="#604149"/><stop offset="100%" stop-color="#b17481"/></linearGradient><linearGradient id="ft4" x1="0" y1="1" x2="0" y2="0"><stop offset="0%" stop-color="#ea97a8"/><stop offset="100%" stop-color="#ffb5c9"/></linearGradient><linearGradient id="fr5" x1="0" y1="1" x2="0" y2="0"><stop offset="0%" stop-color="#554887"/><stop offset="100%" stop-color="#8a72de"/></linearGradient><linearGradient id="fl5" x1="0" y1="1" x2="0" y2="0"><stop offset="0%" stop-color="#3c3360"/><stop offset="100%" stop-color="#6c59ad"/></linearGradient><linearGradient id="ft5" x1="0" y1="1" x2="0" y2="0"><stop offset="0%" stop-color="#8d73e4"/><stop offset="100%" stop-color="#a989ff"/></linearGradient><linearGradient id="fr6" x1="0" y1="1" x2="0" y2="0"><stop offset="0%" stop-color="#536578"/><stop offset="100%" stop-color="#86a5c4"/></linearGradient><linearGradient id="fl6" x1="0" y1="1" x2="0" y2="0"><stop offset="0%" stop-color="#3b4855"/><stop offset="100%" stop-color="#698199"/></linearGradient><linearGradient id="ft6" x1="0" y1="1" x2="0" y2="0"><stop offset="0%" stop-color="#89a8c8"/><stop offset="100%" stop-color="#a4caf1"/></linearGradient><linearGradient id="fr7" x1="0" y1="1" x2="0" y2="0"><stop offset="0%" stop-color="#824234"/><stop offset="100%" stop-color="#da664c"/></linearGradient><linearGradient id="fl7" x1="0" y1="1" x2="0" y2="0"><stop offset="0%" stop-color="#5d2f25"/><stop offset="100%" stop-color="#aa503b"/></linearGradient><linearGradient id="ft7" x1="0" y1="1" x2="0" y2="0"><stop offset="0%" stop-color="#e0684b"/><stop offset="100%" stop-color="#ff7a56"/></linearGradient><linearGradient id="fr8" x1="0" y1="1" x2="0" y2="0"><stop offset="0%" stop-color="#616a73"/><stop offset="100%" stop-color="#9fadbb"/></linearGradient><linearGradient id="fl8" x1="0" y1="1" x2="0" y2="0"><stop offset="0%" stop-color="#454b52"/><stop offset="100%" stop-color="#7c8792"/></linearGradient><linearGradient id="ft8" x1="0" y1="1" x2="0" y2="0"><stop offset="0%" stop-color="#a3b1bf"/><stop offset="100%" stop-color="#c5d5e5"/></linearGradient><linearGradient id="fr9" x1="0" y1="1" x2="0" y2="0"><stop offset="0%" stop-color="#565d67"/><stop offset="100%" stop-color="#8c97a5"/></linearGradient><linearGradient id="fl9" x1="0" y1="1" x2="0" y2="0"><stop offset="0%" stop-color="#3d4249"/><stop offset="100%" stop-color="#6e7681"/></linearGradient><linearGradient id="ft9" x1="0" y1="1" x2="0" y2="0"><stop offset="0%" stop-color="#8f9aa8"/><stop offset="100%" stop-color="#acb9c9"/></linearGradient><radialGradient id="sh"><stop offset="0%" stop-color="#000" stop-opacity=".55"/><stop offset="65%" stop-color="#000" stop-opacity=".22"/><stop offset="100%" stop-color="#000" stop-opacity="0"/></radialGradient><radialGradient id="core"><stop offset="0%" stop-color="#7fb4d9" stop-opacity="0.50"/><stop offset="40%" stop-color="#7fb4d9" stop-opacity="0.15"/><stop offset="100%" stop-color="#7fb4d9" stop-opacity="0"/></radialGradient><pattern id="wr" width="1.35" height="1.8" patternUnits="userSpaceOnUse" patternTransform="skewY(-30)"><rect x="0.3" y="0.4" width="0.72" height="1.02" rx="0.14" fill="#31415c"/></pattern><pattern id="wl" width="1.35" height="1.8" patternUnits="userSpaceOnUse" patternTransform="skewY(30)"><rect x="0.3" y="0.4" width="0.72" height="1.02" rx="0.14" fill="#31415c"/></pattern>
</defs>

<rect x="-153.21" y="-85.77" width="327.18" height="163.59" fill="url(#bg)"/>

<ellipse cx="10.37" cy="13.17" rx="117.78" ry="37.69" fill="url(#haze)"/>
<g><ellipse cx="0" cy="0" rx="26.64" ry="15.38" fill="none" stroke="#5a7ab0" stroke-opacity="0.10" stroke-width="0.29"/><ellipse cx="0" cy="0" rx="46.23" ry="26.69" fill="none" stroke="#5a7ab0" stroke-opacity="0.10" stroke-width="0.29"/><ellipse cx="0" cy="0" rx="65.83" ry="38.01" fill="none" stroke="#5a7ab0" stroke-opacity="0.10" stroke-width="0.29"/><ellipse cx="0" cy="0" rx="85.43" ry="49.32" fill="none" stroke="#5a7ab0" stroke-opacity="0.10" stroke-width="0.29"/><ellipse cx="0" cy="0" rx="105.02" ry="60.63" fill="none" stroke="#5a7ab0" stroke-opacity="0.10" stroke-width="0.29"/><ellipse cx="0" cy="0" rx="124.62" ry="71.95" fill="none" stroke="#5a7ab0" stroke-opacity="0.10" stroke-width="0.29"/><ellipse cx="0" cy="0" rx="144.21" ry="83.26" fill="none" stroke="#5a7ab0" stroke-opacity="0.10" stroke-width="0.29"/><ellipse cx="0" cy="0" rx="163.81" ry="94.58" fill="none" stroke="#5a7ab0" stroke-opacity="0.10" stroke-width="0.29"/></g>
<g><path d="M7.41 -68.85L10.55 -68.63L13.66 -68.33L16.75 -67.95L19.80 -67.49L22.82 -66.96L25.80 -66.35L28.73 -65.67L28.73 -63.67L25.80 -64.35L22.82 -64.96L19.80 -65.49L16.75 -65.95L13.66 -66.33L10.55 -66.63L7.41 -66.85Z" fill="#949786"/><path d="M7.41 -68.85L10.55 -68.63L13.66 -68.33L16.75 -67.95L19.80 -67.49L22.82 -66.96L25.80 -66.35L28.73 -65.67L23.18 -58.19L20.81 -58.74L18.41 -59.23L15.98 -59.66L13.51 -60.03L11.02 -60.34L8.51 -60.58L5.98 -60.77Z" fill="#adae8e" fill-opacity="0.96"/><path d="M7.41 -68.85L10.55 -68.63L13.66 -68.33L16.75 -67.95L19.80 -67.49L22.82 -66.96L25.80 -66.35L28.73 -65.67" fill="none" stroke="#f1e05a" stroke-opacity="0.11" stroke-width="2.00" stroke-linecap="round"/><path d="M7.41 -68.85L10.55 -68.63L13.66 -68.33L16.75 -67.95L19.80 -67.49L22.82 -66.96L25.80 -66.35L28.73 -65.67" fill="none" stroke="#f1e05a" stroke-opacity="0.60" stroke-width="0.70" stroke-linecap="round"/></g><g><path d="M-57.94 -52.51L-55.80 -54.06L-53.54 -55.54L-51.16 -56.96L-48.67 -58.31L-46.07 -59.60L-43.37 -60.81L-40.57 -61.95L-37.68 -63.01L-34.71 -63.99L-31.66 -64.89L-28.54 -65.71L-25.36 -66.44L-22.13 -67.09L-22.13 -65.09L-25.36 -64.44L-28.54 -63.71L-31.66 -62.89L-34.71 -61.99L-37.68 -61.01L-40.57 -59.95L-43.37 -58.81L-46.07 -57.60L-48.67 -56.31L-51.16 -54.96L-53.54 -53.54L-55.80 -52.06L-57.94 -50.51Z" fill="#749798"/><path d="M-57.94 -52.51L-55.80 -54.06L-53.54 -55.54L-51.16 -56.96L-48.67 -58.31L-46.07 -59.60L-43.37 -60.81L-40.57 -61.95L-37.68 -63.01L-34.71 -63.99L-31.66 -64.89L-28.54 -65.71L-25.36 -66.44L-22.13 -67.09L-17.85 -59.34L-20.46 -58.82L-23.03 -58.23L-25.54 -57.57L-28.00 -56.84L-30.40 -56.05L-32.73 -55.20L-34.98 -54.28L-37.16 -53.30L-39.26 -52.26L-41.27 -51.17L-43.19 -50.02L-45.02 -48.83L-46.74 -47.58Z" fill="#7baea9" fill-opacity="0.96"/><path d="M-57.94 -52.51L-55.80 -54.06L-53.54 -55.54L-51.16 -56.96L-48.67 -58.31L-46.07 -59.60L-43.37 -60.81L-40.57 -61.95L-37.68 -63.01L-34.71 -63.99L-31.66 -64.89L-28.54 -65.71L-25.36 -66.44L-22.13 -67.09" fill="none" stroke="#57e0b0" stroke-opacity="0.11" stroke-width="2.00" stroke-linecap="round"/><path d="M-57.94 -52.51L-55.80 -54.06L-53.54 -55.54L-51.16 -56.96L-48.67 -58.31L-46.07 -59.60L-43.37 -60.81L-40.57 -61.95L-37.68 -63.01L-34.71 -63.99L-31.66 -64.89L-28.54 -65.71L-25.36 -66.44L-22.13 -67.09" fill="none" stroke="#57e0b0" stroke-opacity="0.61" stroke-width="0.70" stroke-linecap="round"/></g><g><path d="M-42.36 -36.65L-40.07 -38.27L-37.59 -39.80L-34.94 -41.22L-32.12 -42.54L-29.16 -43.74L-26.06 -44.83L-22.84 -45.79L-19.52 -46.62L-16.10 -47.32L-12.61 -47.88L-9.06 -48.31L-5.47 -48.60L-1.86 -48.74L1.76 -48.74L5.38 -48.60L5.38 -46.60L1.76 -46.74L-1.86 -46.74L-5.47 -46.60L-9.06 -46.31L-12.61 -45.88L-16.10 -45.32L-19.52 -44.62L-22.84 -43.79L-26.06 -42.83L-29.16 -41.74L-32.12 -40.54L-34.94 -39.22L-37.59 -37.80L-40.07 -36.27L-42.36 -34.65Z" fill="#749798"/><path d="M-42.36 -36.65L-40.07 -38.27L-37.59 -39.80L-34.94 -41.22L-32.12 -42.54L-29.16 -43.74L-26.06 -44.83L-22.84 -45.79L-19.52 -46.62L-16.10 -47.32L-12.61 -47.88L-9.06 -48.31L-5.47 -48.60L-1.86 -48.74L1.76 -48.74L5.38 -48.60L3.96 -40.51L1.30 -40.62L-1.37 -40.61L-4.03 -40.51L-6.67 -40.30L-9.28 -39.98L-11.84 -39.57L-14.36 -39.05L-16.80 -38.44L-19.17 -37.74L-21.45 -36.94L-23.63 -36.05L-25.70 -35.08L-27.65 -34.04L-29.48 -32.91L-31.16 -31.72Z" fill="#87beb9" fill-opacity="0.96"/><path d="M-42.36 -36.65L-40.07 -38.27L-37.59 -39.80L-34.94 -41.22L-32.12 -42.54L-29.16 -43.74L-26.06 -44.83L-22.84 -45.79L-19.52 -46.62L-16.10 -47.32L-12.61 -47.88L-9.06 -48.31L-5.47 -48.60L-1.86 -48.74L1.76 -48.74L5.38 -48.60" fill="none" stroke="#57e0b0" stroke-opacity="0.12" stroke-width="2.00" stroke-linecap="round"/><path d="M-42.36 -36.65L-40.07 -38.27L-37.59 -39.80L-34.94 -41.22L-32.12 -42.54L-29.16 -43.74L-26.06 -44.83L-22.84 -45.79L-19.52 -46.62L-16.10 -47.32L-12.61 -47.88L-9.06 -48.31L-5.47 -48.60L-1.86 -48.74L1.76 -48.74L5.38 -48.60" fill="none" stroke="#57e0b0" stroke-opacity="0.62" stroke-width="0.70" stroke-linecap="round"/></g><g><path d="M5.42 -48.60L8.92 -48.32L12.38 -47.92L15.79 -47.38L19.13 -46.71L22.38 -45.91L25.54 -44.99L28.58 -43.96L31.50 -42.81L34.28 -41.55L36.91 -40.18L39.37 -38.72L41.67 -37.17L41.67 -35.17L39.37 -36.72L36.91 -38.18L34.28 -39.55L31.50 -40.81L28.58 -41.96L25.54 -42.99L22.38 -43.91L19.13 -44.71L15.79 -45.38L12.38 -45.92L8.92 -46.32L5.42 -46.60Z" fill="#949786"/><path d="M5.42 -48.60L8.92 -48.32L12.38 -47.92L15.79 -47.38L19.13 -46.71L22.38 -45.91L25.54 -44.99L28.58 -43.96L31.50 -42.81L34.28 -41.55L36.91 -40.18L39.37 -38.72L41.67 -37.17L30.65 -32.10L28.96 -33.24L27.15 -34.32L25.22 -35.32L23.17 -36.25L21.03 -37.10L18.79 -37.86L16.47 -38.53L14.07 -39.12L11.62 -39.61L9.11 -40.01L6.56 -40.31L3.99 -40.51Z" fill="#bdbe9b" fill-opacity="0.96"/><path d="M5.42 -48.60L8.92 -48.32L12.38 -47.92L15.79 -47.38L19.13 -46.71L22.38 -45.91L25.54 -44.99L28.58 -43.96L31.50 -42.81L34.28 -41.55L36.91 -40.18L39.37 -38.72L41.67 -37.17" fill="none" stroke="#f1e05a" stroke-opacity="0.12" stroke-width="2.00" stroke-linecap="round"/><path d="M5.42 -48.60L8.92 -48.32L12.38 -47.92L15.79 -47.38L19.13 -46.71L22.38 -45.91L25.54 -44.99L28.58 -43.96L31.50 -42.81L34.28 -41.55L36.91 -40.18L39.37 -38.72L41.67 -37.17" fill="none" stroke="#f1e05a" stroke-opacity="0.62" stroke-width="0.70" stroke-linecap="round"/></g><g><path d="M41.69 -37.15L43.70 -35.59L45.54 -33.97L47.19 -32.28L48.66 -30.53L49.93 -28.73L49.93 -26.73L48.66 -28.53L47.19 -30.28L45.54 -31.97L43.70 -33.59L41.69 -35.15Z" fill="#949786"/><path d="M41.69 -37.15L43.70 -35.59L45.54 -33.97L47.19 -32.28L48.66 -30.53L49.93 -28.73L36.73 -25.90L35.79 -27.22L34.71 -28.50L33.50 -29.75L32.15 -30.94L30.67 -32.09Z" fill="#bdbe9b" fill-opacity="0.96"/><path d="M41.69 -37.15L43.70 -35.59L45.54 -33.97L47.19 -32.28L48.66 -30.53L49.93 -28.73" fill="none" stroke="#f1e05a" stroke-opacity="0.12" stroke-width="2.00" stroke-linecap="round"/><path d="M41.69 -37.15L43.70 -35.59L45.54 -33.97L47.19 -32.28L48.66 -30.53L49.93 -28.73" fill="none" stroke="#f1e05a" stroke-opacity="0.64" stroke-width="0.70" stroke-linecap="round"/></g><g><path d="M23.82 4.75L21.10 6.16L18.14 7.38L14.96 8.42L11.61 9.25L8.13 9.87L4.55 10.27L0.91 10.44L-2.73 10.38L-6.35 10.10L-9.89 9.59L-13.31 8.86L-16.58 7.93L-19.65 6.79L-22.49 5.47L-25.07 3.99L-27.35 2.34L-29.32 0.57L-30.94 -1.32L-32.20 -3.29L-33.08 -5.34L-33.57 -7.42L-33.67 -9.53L-33.37 -11.63L-32.68 -13.69L-31.61 -15.71L-30.17 -17.64L-28.38 -19.47L-26.25 -21.18L-23.82 -22.75L-21.10 -24.16L-18.14 -25.38L-14.96 -26.42L-11.61 -27.25L-8.13 -27.87L-4.55 -28.27L-0.91 -28.44L2.73 -28.38L6.35 -28.10L9.89 -27.59L13.31 -26.86L16.58 -25.93L19.65 -24.79L22.49 -23.47L25.07 -21.99L27.35 -20.34L29.32 -18.57L30.94 -16.68L32.20 -14.71L33.08 -12.66L33.57 -10.58L33.67 -8.47L33.37 -6.37L32.68 -4.31L31.61 -2.29L30.17 -0.36L28.38 1.47L26.25 3.18L23.82 4.75L23.82 6.75L26.25 5.18L28.38 3.47L30.17 1.64L31.61 -0.29L32.68 -2.31L33.37 -4.37L33.67 -6.47L33.57 -8.58L33.08 -10.66L32.20 -12.71L30.94 -14.68L29.32 -16.57L27.35 -18.34L25.07 -19.99L22.49 -21.47L19.65 -22.79L16.58 -23.93L13.31 -24.86L9.89 -25.59L6.35 -26.10L2.73 -26.38L-0.91 -26.44L-4.55 -26.27L-8.13 -25.87L-11.61 -25.25L-14.96 -24.42L-18.14 -23.38L-21.10 -22.16L-23.82 -20.75L-26.25 -19.18L-28.38 -17.47L-30.17 -15.64L-31.61 -13.71L-32.68 -11.69L-33.37 -9.63L-33.67 -7.53L-33.57 -5.42L-33.08 -3.34L-32.20 -1.29L-30.94 0.68L-29.32 2.57L-27.35 4.34L-25.07 5.99L-22.49 7.47L-19.65 8.79L-16.58 9.93L-13.31 10.86L-9.89 11.59L-6.35 12.10L-2.73 12.38L0.91 12.44L4.55 12.27L8.13 11.87L11.61 11.25L14.96 10.42L18.14 9.38L21.10 8.16L23.82 6.75Z" fill="#749798"/><path d="M23.82 4.75L21.10 6.16L18.14 7.38L14.96 8.42L11.61 9.25L8.13 9.87L4.55 10.27L0.91 10.44L-2.73 10.38L-6.35 10.10L-9.89 9.59L-13.31 8.86L-16.58 7.93L-19.65 6.79L-22.49 5.47L-25.07 3.99L-27.35 2.34L-29.32 0.57L-30.94 -1.32L-32.20 -3.29L-33.08 -5.34L-33.57 -7.42L-33.67 -9.53L-33.37 -11.63L-32.68 -13.69L-31.61 -15.71L-30.17 -17.64L-28.38 -19.47L-26.25 -21.18L-23.82 -22.75L-21.10 -24.16L-18.14 -25.38L-14.96 -26.42L-11.61 -27.25L-8.13 -27.87L-4.55 -28.27L-0.91 -28.44L2.73 -28.38L6.35 -28.10L9.89 -27.59L13.31 -26.86L16.58 -25.93L19.65 -24.79L22.49 -23.47L25.07 -21.99L27.35 -20.34L29.32 -18.57L30.94 -16.68L32.20 -14.71L33.08 -12.66L33.57 -10.58L33.67 -8.47L33.37 -6.37L32.68 -4.31L31.61 -2.29L30.17 -0.36L28.38 1.47L26.25 3.18L23.82 4.75L13.86 -1.00L15.27 -1.91L16.51 -2.91L17.56 -3.97L18.39 -5.10L19.02 -6.27L19.42 -7.47L19.59 -8.69L19.53 -9.92L19.24 -11.13L18.73 -12.32L18.00 -13.47L17.06 -14.57L15.92 -15.60L14.59 -16.56L13.09 -17.42L11.43 -18.19L9.64 -18.85L7.74 -19.39L5.75 -19.82L3.69 -20.11L1.59 -20.28L-0.53 -20.31L-2.65 -20.21L-4.73 -19.98L-6.76 -19.62L-8.71 -19.14L-10.55 -18.53L-12.28 -17.82L-13.86 -17.00L-15.27 -16.09L-16.51 -15.09L-17.56 -14.03L-18.39 -12.90L-19.02 -11.73L-19.42 -10.53L-19.59 -9.31L-19.53 -8.08L-19.24 -6.87L-18.73 -5.68L-18.00 -4.53L-17.06 -3.43L-15.92 -2.40L-14.59 -1.44L-13.09 -0.58L-11.43 0.19L-9.64 0.85L-7.74 1.39L-5.75 1.82L-3.69 2.11L-1.59 2.28L0.53 2.31L2.65 2.21L4.73 1.98L6.76 1.62L8.71 1.14L10.55 0.53L12.28 -0.18L13.86 -1.00Z" fill="#93cfc9" fill-opacity="0.96"/><path d="M23.82 4.75L21.10 6.16L18.14 7.38L14.96 8.42L11.61 9.25L8.13 9.87L4.55 10.27L0.91 10.44L-2.73 10.38L-6.35 10.10L-9.89 9.59L-13.31 8.86L-16.58 7.93L-19.65 6.79L-22.49 5.47L-25.07 3.99L-27.35 2.34L-29.32 0.57L-30.94 -1.32L-32.20 -3.29L-33.08 -5.34L-33.57 -7.42L-33.67 -9.53L-33.37 -11.63L-32.68 -13.69L-31.61 -15.71L-30.17 -17.64L-28.38 -19.47L-26.25 -21.18L-23.82 -22.75L-21.10 -24.16L-18.14 -25.38L-14.96 -26.42L-11.61 -27.25L-8.13 -27.87L-4.55 -28.27L-0.91 -28.44L2.73 -28.38L6.35 -28.10L9.89 -27.59L13.31 -26.86L16.58 -25.93L19.65 -24.79L22.49 -23.47L25.07 -21.99L27.35 -20.34L29.32 -18.57L30.94 -16.68L32.20 -14.71L33.08 -12.66L33.57 -10.58L33.67 -8.47L33.37 -6.37L32.68 -4.31L31.61 -2.29L30.17 -0.36L28.38 1.47L26.25 3.18L23.82 4.75" fill="none" stroke="#57e0b0" stroke-opacity="0.12" stroke-width="2.00" stroke-linecap="round"/><path d="M23.82 4.75L21.10 6.16L18.14 7.38L14.96 8.42L11.61 9.25L8.13 9.87L4.55 10.27L0.91 10.44L-2.73 10.38L-6.35 10.10L-9.89 9.59L-13.31 8.86L-16.58 7.93L-19.65 6.79L-22.49 5.47L-25.07 3.99L-27.35 2.34L-29.32 0.57L-30.94 -1.32L-32.20 -3.29L-33.08 -5.34L-33.57 -7.42L-33.67 -9.53L-33.37 -11.63L-32.68 -13.69L-31.61 -15.71L-30.17 -17.64L-28.38 -19.47L-26.25 -21.18L-23.82 -22.75L-21.10 -24.16L-18.14 -25.38L-14.96 -26.42L-11.61 -27.25L-8.13 -27.87L-4.55 -28.27L-0.91 -28.44L2.73 -28.38L6.35 -28.10L9.89 -27.59L13.31 -26.86L16.58 -25.93L19.65 -24.79L22.49 -23.47L25.07 -21.99L27.35 -20.34L29.32 -18.57L30.94 -16.68L32.20 -14.71L33.08 -12.66L33.57 -10.58L33.67 -8.47L33.37 -6.37L32.68 -4.31L31.61 -2.29L30.17 -0.36L28.38 1.47L26.25 3.18L23.82 4.75" fill="none" stroke="#57e0b0" stroke-opacity="0.64" stroke-width="0.70" stroke-linecap="round"/></g><g><path d="M68.31 -41.65L69.32 -39.97L70.21 -38.27L70.97 -36.55L71.61 -34.81L72.11 -33.05L72.49 -31.29L72.49 -29.29L72.11 -31.05L71.61 -32.81L70.97 -34.55L70.21 -36.27L69.32 -37.97L68.31 -39.65Z" fill="#978695"/><path d="M68.31 -41.65L69.32 -39.97L70.21 -38.27L70.97 -36.55L71.61 -34.81L72.11 -33.05L72.49 -31.29L58.48 -30.46L58.18 -31.88L57.77 -33.30L57.25 -34.70L56.64 -36.09L55.92 -37.46L55.11 -38.82Z" fill="#b194a5" fill-opacity="0.96"/><path d="M68.31 -41.65L69.32 -39.97L70.21 -38.27L70.97 -36.55L71.61 -34.81L72.11 -33.05L72.49 -31.29" fill="none" stroke="#ff8fa3" stroke-opacity="0.12" stroke-width="2.00" stroke-linecap="round"/><path d="M68.31 -41.65L69.32 -39.97L70.21 -38.27L70.97 -36.55L71.61 -34.81L72.11 -33.05L72.49 -31.29" fill="none" stroke="#ff8fa3" stroke-opacity="0.64" stroke-width="0.70" stroke-linecap="round"/></g><g><path d="M49.94 -28.71L51.02 -26.86L51.89 -24.98L52.55 -23.07L53.00 -21.14L53.00 -19.14L52.55 -21.07L51.89 -22.98L51.02 -24.86L49.94 -26.71Z" fill="#978695"/><path d="M49.94 -28.71L51.02 -26.86L51.89 -24.98L52.55 -23.07L53.00 -21.14L38.99 -20.31L38.66 -21.73L38.17 -23.13L37.53 -24.52L36.74 -25.88Z" fill="#c2a2b5" fill-opacity="0.96"/><path d="M49.94 -28.71L51.02 -26.86L51.89 -24.98L52.55 -23.07L53.00 -21.14" fill="none" stroke="#ff8fa3" stroke-opacity="0.12" stroke-width="2.00" stroke-linecap="round"/><path d="M49.94 -28.71L51.02 -26.86L51.89 -24.98L52.55 -23.07L53.00 -21.14" fill="none" stroke="#ff8fa3" stroke-opacity="0.65" stroke-width="0.70" stroke-linecap="round"/></g><g><path d="M53.00 -21.11L53.20 -19.69L53.27 -18.26L53.24 -16.83L53.24 -14.83L53.27 -16.26L53.20 -17.69L53.00 -19.11Z" fill="#7f7fa8"/><path d="M53.00 -21.11L53.20 -19.69L53.27 -18.26L53.24 -16.83L39.16 -17.14L39.19 -18.19L39.13 -19.24L38.99 -20.29Z" fill="#9b95d5" fill-opacity="0.96"/><path d="M53.00 -21.11L53.20 -19.69L53.27 -18.26L53.24 -16.83" fill="none" stroke="#8f6bff" stroke-opacity="0.12" stroke-width="2.00" stroke-linecap="round"/><path d="M53.00 -21.11L53.20 -19.69L53.27 -18.26L53.24 -16.83" fill="none" stroke="#8f6bff" stroke-opacity="0.66" stroke-width="0.70" stroke-linecap="round"/></g><g><path d="M-35.94 4.71L-38.50 3.26L-40.89 1.71L-43.10 0.08L-45.11 -1.63L-46.91 -3.42L-48.51 -5.28L-49.88 -7.19L-51.02 -9.15L-51.94 -11.15L-52.62 -13.19L-53.06 -15.24L-53.26 -17.31L-53.22 -19.38L-52.94 -21.44L-52.42 -23.49L-51.66 -25.52L-50.67 -27.51L-49.45 -29.45L-48.00 -31.35L-46.34 -33.18L-44.46 -34.95L-42.39 -36.63L-42.39 -34.63L-44.46 -32.95L-46.34 -31.18L-48.00 -29.35L-49.45 -27.45L-50.67 -25.51L-51.66 -23.52L-52.42 -21.49L-52.94 -19.44L-53.22 -17.38L-53.26 -15.31L-53.06 -13.24L-52.62 -11.19L-51.94 -9.15L-51.02 -7.15L-49.88 -5.19L-48.51 -3.28L-46.91 -1.42L-45.11 0.37L-43.10 2.08L-40.89 3.71L-38.50 5.26L-35.94 6.71Z" fill="#949786"/><path d="M-35.94 4.71L-38.50 3.26L-40.89 1.71L-43.10 0.08L-45.11 -1.63L-46.91 -3.42L-48.51 -5.28L-49.88 -7.19L-51.02 -9.15L-51.94 -11.15L-52.62 -13.19L-53.06 -15.24L-53.26 -17.31L-53.22 -19.38L-52.94 -21.44L-52.42 -23.49L-51.66 -25.52L-50.67 -27.51L-49.45 -29.45L-48.00 -31.35L-46.34 -33.18L-44.46 -34.95L-42.39 -36.63L-31.18 -31.71L-32.71 -30.47L-34.09 -29.17L-35.31 -27.82L-36.37 -26.42L-37.27 -24.99L-38.00 -23.53L-38.56 -22.04L-38.95 -20.53L-39.15 -19.01L-39.18 -17.49L-39.03 -15.97L-38.71 -14.46L-38.21 -12.96L-37.54 -11.49L-36.69 -10.05L-35.68 -8.64L-34.51 -7.28L-33.18 -5.96L-31.70 -4.70L-30.08 -3.50L-28.33 -2.36L-26.44 -1.30Z" fill="#bdbe9b" fill-opacity="0.96"/><path d="M-35.94 4.71L-38.50 3.26L-40.89 1.71L-43.10 0.08L-45.11 -1.63L-46.91 -3.42L-48.51 -5.28L-49.88 -7.19L-51.02 -9.15L-51.94 -11.15L-52.62 -13.19L-53.06 -15.24L-53.26 -17.31L-53.22 -19.38L-52.94 -21.44L-52.42 -23.49L-51.66 -25.52L-50.67 -27.51L-49.45 -29.45L-48.00 -31.35L-46.34 -33.18L-44.46 -34.95L-42.39 -36.63" fill="none" stroke="#f1e05a" stroke-opacity="0.12" stroke-width="2.00" stroke-linecap="round"/><path d="M-35.94 4.71L-38.50 3.26L-40.89 1.71L-43.10 0.08L-45.11 -1.63L-46.91 -3.42L-48.51 -5.28L-49.88 -7.19L-51.02 -9.15L-51.94 -11.15L-52.62 -13.19L-53.06 -15.24L-53.26 -17.31L-53.22 -19.38L-52.94 -21.44L-52.42 -23.49L-51.66 -25.52L-50.67 -27.51L-49.45 -29.45L-48.00 -31.35L-46.34 -33.18L-44.46 -34.95L-42.39 -36.63" fill="none" stroke="#f1e05a" stroke-opacity="0.66" stroke-width="0.70" stroke-linecap="round"/></g><g><path d="M-68.73 -13.01L-69.72 -14.76L-70.58 -16.54L-71.31 -18.34L-71.90 -20.15L-72.35 -21.97L-72.35 -19.97L-71.90 -18.15L-71.31 -16.34L-70.58 -14.54L-69.72 -12.76L-68.73 -11.01Z" fill="#949786"/><path d="M-68.73 -13.01L-69.72 -14.76L-70.58 -16.54L-71.31 -18.34L-71.90 -20.15L-72.35 -21.97L-58.37 -22.95L-58.00 -21.47L-57.53 -20.01L-56.94 -18.56L-56.25 -17.13L-55.44 -15.72Z" fill="#adae8e" fill-opacity="0.96"/><path d="M-68.73 -13.01L-69.72 -14.76L-70.58 -16.54L-71.31 -18.34L-71.90 -20.15L-72.35 -21.97" fill="none" stroke="#f1e05a" stroke-opacity="0.13" stroke-width="2.00" stroke-linecap="round"/><path d="M-68.73 -13.01L-69.72 -14.76L-70.58 -16.54L-71.31 -18.34L-71.90 -20.15L-72.35 -21.97" fill="none" stroke="#f1e05a" stroke-opacity="0.67" stroke-width="0.70" stroke-linecap="round"/></g><g><path d="M-49.16 4.06L-51.74 2.63L-54.19 1.13L-56.51 -0.44L-58.70 -2.07L-60.74 -3.76L-62.64 -5.50L-64.39 -7.30L-65.98 -9.14L-67.42 -11.03L-68.69 -12.96L-68.69 -10.96L-67.42 -9.03L-65.98 -7.14L-64.39 -5.30L-62.64 -3.50L-60.74 -1.76L-58.70 -0.07L-56.51 1.56L-54.19 3.13L-51.74 4.63L-49.16 6.06Z" fill="#949786"/><path d="M-49.16 4.06L-51.74 2.63L-54.19 1.13L-56.51 -0.44L-58.70 -2.07L-60.74 -3.76L-62.64 -5.50L-64.39 -7.30L-65.98 -9.14L-67.42 -11.03L-68.69 -12.96L-55.42 -15.67L-54.39 -14.12L-53.23 -12.60L-51.94 -11.11L-50.53 -9.66L-49.00 -8.25L-47.35 -6.89L-45.59 -5.57L-43.71 -4.31L-41.74 -3.10L-39.66 -1.95Z" fill="#adae8e" fill-opacity="0.96"/><path d="M-49.16 4.06L-51.74 2.63L-54.19 1.13L-56.51 -0.44L-58.70 -2.07L-60.74 -3.76L-62.64 -5.50L-64.39 -7.30L-65.98 -9.14L-67.42 -11.03L-68.69 -12.96" fill="none" stroke="#f1e05a" stroke-opacity="0.13" stroke-width="2.00" stroke-linecap="round"/><path d="M-49.16 4.06L-51.74 2.63L-54.19 1.13L-56.51 -0.44L-58.70 -2.07L-60.74 -3.76L-62.64 -5.50L-64.39 -7.30L-65.98 -9.14L-67.42 -11.03L-68.69 -12.96" fill="none" stroke="#f1e05a" stroke-opacity="0.69" stroke-width="0.70" stroke-linecap="round"/></g><g><path d="M37.67 3.75L35.09 5.14L32.36 6.43L29.48 7.62L26.48 8.69L23.36 9.65L20.13 10.48L16.82 11.19L13.44 11.76L9.99 12.21L6.50 12.53L2.98 12.71L-0.55 12.76L-4.08 12.67L-7.59 12.45L-11.06 12.09L-14.49 11.60L-17.86 10.98L-21.15 10.23L-24.34 9.36L-27.43 8.37L-30.39 7.26L-33.22 6.05L-35.91 4.72L-35.91 6.72L-33.22 8.05L-30.39 9.26L-27.43 10.37L-24.34 11.36L-21.15 12.23L-17.86 12.98L-14.49 13.60L-11.06 14.09L-7.59 14.45L-4.08 14.67L-0.55 14.76L2.98 14.71L6.50 14.53L9.99 14.21L13.44 13.76L16.82 13.19L20.13 12.48L23.36 11.65L26.48 10.69L29.48 9.62L32.36 8.43L35.09 7.14L37.67 5.75Z" fill="#949786"/><path d="M37.67 3.75L35.09 5.14L32.36 6.43L29.48 7.62L26.48 8.69L23.36 9.65L20.13 10.48L16.82 11.19L13.44 11.76L9.99 12.21L6.50 12.53L2.98 12.71L-0.55 12.76L-4.08 12.67L-7.59 12.45L-11.06 12.09L-14.49 11.60L-17.86 10.98L-21.15 10.23L-24.34 9.36L-27.43 8.37L-30.39 7.26L-33.22 6.05L-35.91 4.72L-26.42 -1.29L-24.44 -0.31L-22.36 0.58L-20.17 1.40L-17.90 2.13L-15.56 2.77L-13.14 3.32L-10.66 3.77L-8.14 4.13L-5.58 4.40L-3.00 4.56L-0.40 4.63L2.19 4.59L4.78 4.46L7.35 4.23L9.88 3.90L12.37 3.47L14.81 2.95L17.18 2.34L19.48 1.63L21.69 0.85L23.81 -0.02L25.82 -0.98L27.71 -2.00Z" fill="#bdbe9b" fill-opacity="0.96"/><path d="M37.67 3.75L35.09 5.14L32.36 6.43L29.48 7.62L26.48 8.69L23.36 9.65L20.13 10.48L16.82 11.19L13.44 11.76L9.99 12.21L6.50 12.53L2.98 12.71L-0.55 12.76L-4.08 12.67L-7.59 12.45L-11.06 12.09L-14.49 11.60L-17.86 10.98L-21.15 10.23L-24.34 9.36L-27.43 8.37L-30.39 7.26L-33.22 6.05L-35.91 4.72" fill="none" stroke="#f1e05a" stroke-opacity="0.13" stroke-width="2.00" stroke-linecap="round"/><path d="M37.67 3.75L35.09 5.14L32.36 6.43L29.48 7.62L26.48 8.69L23.36 9.65L20.13 10.48L16.82 11.19L13.44 11.76L9.99 12.21L6.50 12.53L2.98 12.71L-0.55 12.76L-4.08 12.67L-7.59 12.45L-11.06 12.09L-14.49 11.60L-17.86 10.98L-21.15 10.23L-24.34 9.36L-27.43 8.37L-30.39 7.26L-33.22 6.05L-35.91 4.72" fill="none" stroke="#f1e05a" stroke-opacity="0.70" stroke-width="0.70" stroke-linecap="round"/></g><g><path d="M51.53 2.75L48.93 4.18L46.22 5.53L43.39 6.80L40.46 7.99L37.43 9.10L34.31 10.12L31.11 11.05L27.83 11.88L24.48 12.63L21.08 13.27L17.62 13.82L14.12 14.28L10.59 14.63L7.03 14.88L3.46 15.03L-0.13 15.07L-3.71 15.02L-7.28 14.86L-10.84 14.60L-14.37 14.25L-17.87 13.79L-21.32 13.23L-24.72 12.58L-28.06 11.83L-31.34 10.98L-34.53 10.05L-37.65 9.02L-40.67 7.91L-43.59 6.71L-46.41 5.44L-49.12 4.08L-49.12 6.08L-46.41 7.44L-43.59 8.71L-40.67 9.91L-37.65 11.02L-34.53 12.05L-31.34 12.98L-28.06 13.83L-24.72 14.58L-21.32 15.23L-17.87 15.79L-14.37 16.25L-10.84 16.60L-7.28 16.86L-3.71 17.02L-0.13 17.07L3.46 17.03L7.03 16.88L10.59 16.63L14.12 16.28L17.62 15.82L21.08 15.27L24.48 14.63L27.83 13.88L31.11 13.05L34.31 12.12L37.43 11.10L40.46 9.99L43.39 8.80L46.22 7.53L48.93 6.18L51.53 4.75Z" fill="#949786"/><path d="M51.53 2.75L48.93 4.18L46.22 5.53L43.39 6.80L40.46 7.99L37.43 9.10L34.31 10.12L31.11 11.05L27.83 11.88L24.48 12.63L21.08 13.27L17.62 13.82L14.12 14.28L10.59 14.63L7.03 14.88L3.46 15.03L-0.13 15.07L-3.71 15.02L-7.28 14.86L-10.84 14.60L-14.37 14.25L-17.87 13.79L-21.32 13.23L-24.72 12.58L-28.06 11.83L-31.34 10.98L-34.53 10.05L-37.65 9.02L-40.67 7.91L-43.59 6.71L-46.41 5.44L-49.12 4.08L-39.63 -1.93L-37.44 -0.83L-35.17 0.20L-32.81 1.16L-30.37 2.06L-27.86 2.89L-25.28 3.64L-22.64 4.32L-19.94 4.93L-17.20 5.46L-14.41 5.91L-11.59 6.27L-8.75 6.56L-5.88 6.77L-2.99 6.90L-0.10 6.94L2.79 6.90L5.67 6.78L8.54 6.58L11.39 6.30L14.22 5.93L17.00 5.49L19.75 4.97L22.45 4.37L25.09 3.69L27.68 2.94L30.20 2.12L32.64 1.23L35.00 0.27L37.28 -0.76L39.47 -1.85L41.57 -3.00Z" fill="#adae8e" fill-opacity="0.96"/><path d="M51.53 2.75L48.93 4.18L46.22 5.53L43.39 6.80L40.46 7.99L37.43 9.10L34.31 10.12L31.11 11.05L27.83 11.88L24.48 12.63L21.08 13.27L17.62 13.82L14.12 14.28L10.59 14.63L7.03 14.88L3.46 15.03L-0.13 15.07L-3.71 15.02L-7.28 14.86L-10.84 14.60L-14.37 14.25L-17.87 13.79L-21.32 13.23L-24.72 12.58L-28.06 11.83L-31.34 10.98L-34.53 10.05L-37.65 9.02L-40.67 7.91L-43.59 6.71L-46.41 5.44L-49.12 4.08" fill="none" stroke="#f1e05a" stroke-opacity="0.14" stroke-width="2.00" stroke-linecap="round"/><path d="M51.53 2.75L48.93 4.18L46.22 5.53L43.39 6.80L40.46 7.99L37.43 9.10L34.31 10.12L31.11 11.05L27.83 11.88L24.48 12.63L21.08 13.27L17.62 13.82L14.12 14.28L10.59 14.63L7.03 14.88L3.46 15.03L-0.13 15.07L-3.71 15.02L-7.28 14.86L-10.84 14.60L-14.37 14.25L-17.87 13.79L-21.32 13.23L-24.72 12.58L-28.06 11.83L-31.34 10.98L-34.53 10.05L-37.65 9.02L-40.67 7.91L-43.59 6.71L-46.41 5.44L-49.12 4.08" fill="none" stroke="#f1e05a" stroke-opacity="0.72" stroke-width="0.70" stroke-linecap="round"/></g><g><path d="M-46.46 10.16L-49.27 9.18L-52.02 8.14L-54.70 7.04L-57.32 5.89L-59.86 4.69L-62.33 3.44L-62.33 5.44L-59.86 6.69L-57.32 7.89L-54.70 9.04L-52.02 10.14L-49.27 11.18L-46.46 12.16Z" fill="#949786"/><path d="M-46.46 10.16L-49.27 9.18L-52.02 8.14L-54.70 7.04L-57.32 5.89L-59.86 4.69L-62.33 3.44L-52.83 -2.57L-50.74 -1.51L-48.59 -0.49L-46.37 0.49L-44.10 1.41L-41.77 2.30L-39.38 3.13Z" fill="#9c9d80" fill-opacity="0.96"/><path d="M-46.46 10.16L-49.27 9.18L-52.02 8.14L-54.70 7.04L-57.32 5.89L-59.86 4.69L-62.33 3.44" fill="none" stroke="#f1e05a" stroke-opacity="0.14" stroke-width="2.00" stroke-linecap="round"/><path d="M-46.46 10.16L-49.27 9.18L-52.02 8.14L-54.70 7.04L-57.32 5.89L-59.86 4.69L-62.33 3.44" fill="none" stroke="#f1e05a" stroke-opacity="0.73" stroke-width="0.70" stroke-linecap="round"/></g><g><path d="M65.38 1.75L62.75 3.21L60.01 4.62L57.18 5.96L54.26 7.23L51.26 8.43L48.17 9.57L45.01 10.63L41.78 11.63L38.49 12.54L35.13 13.38L31.72 14.15L28.26 14.83L24.75 15.44L21.21 15.96L17.63 16.41L14.03 16.77L10.40 17.05L6.76 17.24L3.10 17.36L-0.55 17.39L-4.21 17.33L-7.86 17.19L-11.50 16.97L-15.12 16.67L-18.72 16.28L-22.29 15.81L-25.82 15.26L-29.31 14.63L-32.76 13.92L-36.15 13.14L-39.49 12.27L-42.77 11.33L-45.98 10.32L-45.98 12.32L-42.77 13.33L-39.49 14.27L-36.15 15.14L-32.76 15.92L-29.31 16.63L-25.82 17.26L-22.29 17.81L-18.72 18.28L-15.12 18.67L-11.50 18.97L-7.86 19.19L-4.21 19.33L-0.55 19.39L3.10 19.36L6.76 19.24L10.40 19.05L14.03 18.77L17.63 18.41L21.21 17.96L24.75 17.44L28.26 16.83L31.72 16.15L35.13 15.38L38.49 14.54L41.78 13.63L45.01 12.63L48.17 11.57L51.26 10.43L54.26 9.23L57.18 7.96L60.01 6.62L62.75 5.21L65.38 3.75Z" fill="#949786"/><path d="M65.38 1.75L62.75 3.21L60.01 4.62L57.18 5.96L54.26 7.23L51.26 8.43L48.17 9.57L45.01 10.63L41.78 11.63L38.49 12.54L35.13 13.38L31.72 14.15L28.26 14.83L24.75 15.44L21.21 15.96L17.63 16.41L14.03 16.77L10.40 17.05L6.76 17.24L3.10 17.36L-0.55 17.39L-4.21 17.33L-7.86 17.19L-11.50 16.97L-15.12 16.67L-18.72 16.28L-22.29 15.81L-25.82 15.26L-29.31 14.63L-32.76 13.92L-36.15 13.14L-39.49 12.27L-42.77 11.33L-45.98 10.32L-38.97 3.26L-36.25 4.12L-33.48 4.92L-30.65 5.65L-27.77 6.32L-24.85 6.92L-21.89 7.45L-18.89 7.92L-15.87 8.32L-12.82 8.65L-9.75 8.90L-6.67 9.09L-3.57 9.21L-0.47 9.25L2.63 9.23L5.73 9.13L8.82 8.97L11.89 8.73L14.95 8.42L17.98 8.05L20.98 7.60L23.95 7.09L26.89 6.51L29.78 5.86L32.62 5.15L35.42 4.37L38.16 3.53L40.84 2.63L43.45 1.67L46.00 0.64L48.47 -0.44L50.87 -1.57L53.19 -2.76L55.43 -4.00Z" fill="#9c9d80" fill-opacity="0.96"/><path d="M65.38 1.75L62.75 3.21L60.01 4.62L57.18 5.96L54.26 7.23L51.26 8.43L48.17 9.57L45.01 10.63L41.78 11.63L38.49 12.54L35.13 13.38L31.72 14.15L28.26 14.83L24.75 15.44L21.21 15.96L17.63 16.41L14.03 16.77L10.40 17.05L6.76 17.24L3.10 17.36L-0.55 17.39L-4.21 17.33L-7.86 17.19L-11.50 16.97L-15.12 16.67L-18.72 16.28L-22.29 15.81L-25.82 15.26L-29.31 14.63L-32.76 13.92L-36.15 13.14L-39.49 12.27L-42.77 11.33L-45.98 10.32" fill="none" stroke="#f1e05a" stroke-opacity="0.14" stroke-width="2.00" stroke-linecap="round"/><path d="M65.38 1.75L62.75 3.21L60.01 4.62L57.18 5.96L54.26 7.23L51.26 8.43L48.17 9.57L45.01 10.63L41.78 11.63L38.49 12.54L35.13 13.38L31.72 14.15L28.26 14.83L24.75 15.44L21.21 15.96L17.63 16.41L14.03 16.77L10.40 17.05L6.76 17.24L3.10 17.36L-0.55 17.39L-4.21 17.33L-7.86 17.19L-11.50 16.97L-15.12 16.67L-18.72 16.28L-22.29 15.81L-25.82 15.26L-29.31 14.63L-32.76 13.92L-36.15 13.14L-39.49 12.27L-42.77 11.33L-45.98 10.32" fill="none" stroke="#f1e05a" stroke-opacity="0.74" stroke-width="0.70" stroke-linecap="round"/></g><g><path d="M79.24 0.75L76.61 2.22L73.90 3.64L71.11 5.00L68.25 6.32L65.31 7.58L62.30 8.78L59.23 9.92L56.09 11.01L52.90 12.04L49.64 13.01L46.34 13.91L42.98 14.75L39.58 15.53L36.14 16.24L32.66 16.89L29.14 17.47L25.60 17.99L22.02 18.44L18.42 18.82L14.80 19.13L11.17 19.38L7.53 19.55L3.87 19.66L0.21 19.70L-3.44 19.67L-7.10 19.57L-10.74 19.40L-14.38 19.17L-18.00 18.86L-21.60 18.49L-25.18 18.05L-28.73 17.54L-32.25 16.96L-35.73 16.32L-39.18 15.62L-42.59 14.85L-45.95 14.01L-49.26 13.11L-52.52 12.16L-55.72 11.14L-55.72 13.14L-52.52 14.16L-49.26 15.11L-45.95 16.01L-42.59 16.85L-39.18 17.62L-35.73 18.32L-32.25 18.96L-28.73 19.54L-25.18 20.05L-21.60 20.49L-18.00 20.86L-14.38 21.17L-10.74 21.40L-7.10 21.57L-3.44 21.67L0.21 21.70L3.87 21.66L7.53 21.55L11.17 21.38L14.80 21.13L18.42 20.82L22.02 20.44L25.60 19.99L29.14 19.47L32.66 18.89L36.14 18.24L39.58 17.53L42.98 16.75L46.34 15.91L49.64 15.01L52.90 14.04L56.09 13.01L59.23 11.92L62.30 10.78L65.31 9.58L68.25 8.32L71.11 7.00L73.90 5.64L76.61 4.22L79.24 2.75Z" fill="#949786"/><path d="M79.24 0.75L76.61 2.22L73.90 3.64L71.11 5.00L68.25 6.32L65.31 7.58L62.30 8.78L59.23 9.92L56.09 11.01L52.90 12.04L49.64 13.01L46.34 13.91L42.98 14.75L39.58 15.53L36.14 16.24L32.66 16.89L29.14 17.47L25.60 17.99L22.02 18.44L18.42 18.82L14.80 19.13L11.17 19.38L7.53 19.55L3.87 19.66L0.21 19.70L-3.44 19.67L-7.10 19.57L-10.74 19.40L-14.38 19.17L-18.00 18.86L-21.60 18.49L-25.18 18.05L-28.73 17.54L-32.25 16.96L-35.73 16.32L-39.18 15.62L-42.59 14.85L-45.95 14.01L-49.26 13.11L-52.52 12.16L-55.72 11.14L-48.72 4.08L-45.92 4.97L-43.07 5.81L-40.17 6.59L-37.23 7.32L-34.26 8.00L-31.24 8.62L-28.19 9.18L-25.12 9.68L-22.01 10.12L-18.88 10.51L-15.74 10.83L-12.57 11.10L-9.39 11.31L-6.21 11.45L-3.01 11.54L0.19 11.57L3.39 11.53L6.58 11.44L9.77 11.29L12.94 11.07L16.11 10.80L19.25 10.47L22.38 10.07L25.48 9.62L28.55 9.11L31.60 8.55L34.61 7.92L37.58 7.24L40.52 6.51L43.41 5.71L46.25 4.87L49.04 3.97L51.79 3.02L54.47 2.02L57.10 0.97L59.67 -0.13L62.18 -1.28L64.61 -2.48L66.98 -3.72L69.28 -5.00Z" fill="#8c8d73" fill-opacity="0.96"/><path d="M79.24 0.75L76.61 2.22L73.90 3.64L71.11 5.00L68.25 6.32L65.31 7.58L62.30 8.78L59.23 9.92L56.09 11.01L52.90 12.04L49.64 13.01L46.34 13.91L42.98 14.75L39.58 15.53L36.14 16.24L32.66 16.89L29.14 17.47L25.60 17.99L22.02 18.44L18.42 18.82L14.80 19.13L11.17 19.38L7.53 19.55L3.87 19.66L0.21 19.70L-3.44 19.67L-7.10 19.57L-10.74 19.40L-14.38 19.17L-18.00 18.86L-21.60 18.49L-25.18 18.05L-28.73 17.54L-32.25 16.96L-35.73 16.32L-39.18 15.62L-42.59 14.85L-45.95 14.01L-49.26 13.11L-52.52 12.16L-55.72 11.14" fill="none" stroke="#f1e05a" stroke-opacity="0.14" stroke-width="2.00" stroke-linecap="round"/><path d="M79.24 0.75L76.61 2.22L73.90 3.64L71.11 5.00L68.25 6.32L65.31 7.58L62.30 8.78L59.23 9.92L56.09 11.01L52.90 12.04L49.64 13.01L46.34 13.91L42.98 14.75L39.58 15.53L36.14 16.24L32.66 16.89L29.14 17.47L25.60 17.99L22.02 18.44L18.42 18.82L14.80 19.13L11.17 19.38L7.53 19.55L3.87 19.66L0.21 19.70L-3.44 19.67L-7.10 19.57L-10.74 19.40L-14.38 19.17L-18.00 18.86L-21.60 18.49L-25.18 18.05L-28.73 17.54L-32.25 16.96L-35.73 16.32L-39.18 15.62L-42.59 14.85L-45.95 14.01L-49.26 13.11L-52.52 12.16L-55.72 11.14" fill="none" stroke="#f1e05a" stroke-opacity="0.76" stroke-width="0.70" stroke-linecap="round"/></g><g><path d="M93.10 -0.25L90.53 1.19L87.90 2.59L85.20 3.95L82.44 5.27L79.62 6.54L76.74 7.77L73.80 8.95L70.81 10.09L67.76 11.17L64.67 12.21L61.52 13.20L58.34 14.15L55.11 15.04L51.83 15.88L48.52 16.66L45.18 17.40L41.80 18.08L38.39 18.71L34.95 19.29L31.48 19.81L27.99 20.28L24.49 20.69L20.96 21.04L20.96 23.04L24.49 22.69L27.99 22.28L31.48 21.81L34.95 21.29L38.39 20.71L41.80 20.08L45.18 19.40L48.52 18.66L51.83 17.88L55.11 17.04L58.34 16.15L61.52 15.20L64.67 14.21L67.76 13.17L70.81 12.09L73.80 10.95L76.74 9.77L79.62 8.54L82.44 7.27L85.20 5.95L87.90 4.59L90.53 3.19L93.10 1.75Z" fill="#949786"/><path d="M93.10 -0.25L90.53 1.19L87.90 2.59L85.20 3.95L82.44 5.27L79.62 6.54L76.74 7.77L73.80 8.95L70.81 10.09L67.76 11.17L64.67 12.21L61.52 13.20L58.34 14.15L55.11 15.04L51.83 15.88L48.52 16.66L45.18 17.40L41.80 18.08L38.39 18.71L34.95 19.29L31.48 19.81L27.99 20.28L24.49 20.69L20.96 21.04L18.72 13.02L21.87 12.70L25.00 12.33L28.11 11.91L31.21 11.45L34.28 10.93L37.33 10.37L40.34 9.76L43.33 9.10L46.29 8.40L49.21 7.65L52.10 6.86L54.94 6.01L57.75 5.13L60.51 4.20L63.23 3.23L65.90 2.22L68.53 1.16L71.10 0.06L73.62 -1.07L76.09 -2.25L78.50 -3.46L80.85 -4.71L83.14 -6.00Z" fill="#7b7c65" fill-opacity="0.96"/><path d="M93.10 -0.25L90.53 1.19L87.90 2.59L85.20 3.95L82.44 5.27L79.62 6.54L76.74 7.77L73.80 8.95L70.81 10.09L67.76 11.17L64.67 12.21L61.52 13.20L58.34 14.15L55.11 15.04L51.83 15.88L48.52 16.66L45.18 17.40L41.80 18.08L38.39 18.71L34.95 19.29L31.48 19.81L27.99 20.28L24.49 20.69L20.96 21.04" fill="none" stroke="#f1e05a" stroke-opacity="0.15" stroke-width="2.00" stroke-linecap="round"/><path d="M93.10 -0.25L90.53 1.19L87.90 2.59L85.20 3.95L82.44 5.27L79.62 6.54L76.74 7.77L73.80 8.95L70.81 10.09L67.76 11.17L64.67 12.21L61.52 13.20L58.34 14.15L55.11 15.04L51.83 15.88L48.52 16.66L45.18 17.40L41.80 18.08L38.39 18.71L34.95 19.29L31.48 19.81L27.99 20.28L24.49 20.69L20.96 21.04" fill="none" stroke="#f1e05a" stroke-opacity="0.77" stroke-width="0.70" stroke-linecap="round"/></g><g><path d="M-53.24 15.52L-56.36 14.70L-59.44 13.83L-62.47 12.91L-65.47 11.95L-65.47 13.95L-62.47 14.91L-59.44 15.83L-56.36 16.70L-53.24 17.52Z" fill="#949786"/><path d="M-53.24 15.52L-56.36 14.70L-59.44 13.83L-62.47 12.91L-65.47 11.95L-58.46 4.90L-55.79 5.75L-53.08 6.57L-50.33 7.35L-47.55 8.08Z" fill="#7b7c65" fill-opacity="0.96"/><path d="M-53.24 15.52L-56.36 14.70L-59.44 13.83L-62.47 12.91L-65.47 11.95" fill="none" stroke="#f1e05a" stroke-opacity="0.15" stroke-width="2.00" stroke-linecap="round"/><path d="M-53.24 15.52L-56.36 14.70L-59.44 13.83L-62.47 12.91L-65.47 11.95" fill="none" stroke="#f1e05a" stroke-opacity="0.77" stroke-width="0.70" stroke-linecap="round"/></g><g><path d="M-40.12 18.40L-43.37 17.77L-46.60 17.09L-49.79 16.37L-52.95 15.59L-52.95 17.59L-49.79 18.37L-46.60 19.09L-43.37 19.77L-40.12 20.40Z" fill="#949786"/><path d="M-40.12 18.40L-43.37 17.77L-46.60 17.09L-49.79 16.37L-52.95 15.59L-47.29 8.15L-44.47 8.84L-41.61 9.49L-38.73 10.09L-35.83 10.65Z" fill="#7b7c65" fill-opacity="0.96"/><path d="M-40.12 18.40L-43.37 17.77L-46.60 17.09L-49.79 16.37L-52.95 15.59" fill="none" stroke="#f1e05a" stroke-opacity="0.15" stroke-width="2.00" stroke-linecap="round"/><path d="M-40.12 18.40L-43.37 17.77L-46.60 17.09L-49.79 16.37L-52.95 15.59" fill="none" stroke="#f1e05a" stroke-opacity="0.78" stroke-width="0.70" stroke-linecap="round"/></g><g><path d="M-21.70 20.97L-24.76 20.66L-27.80 20.30L-30.83 19.90L-33.85 19.46L-36.84 18.98L-39.82 18.45L-39.82 20.45L-36.84 20.98L-33.85 21.46L-30.83 21.90L-27.80 22.30L-24.76 22.66L-21.70 22.97Z" fill="#949786"/><path d="M-21.70 20.97L-24.76 20.66L-27.80 20.30L-30.83 19.90L-33.85 19.46L-36.84 18.98L-39.82 18.45L-35.56 10.70L-32.90 11.17L-30.23 11.60L-27.54 11.99L-24.83 12.35L-22.11 12.67L-19.38 12.95Z" fill="#7b7c65" fill-opacity="0.96"/><path d="M-21.70 20.97L-24.76 20.66L-27.80 20.30L-30.83 19.90L-33.85 19.46L-36.84 18.98L-39.82 18.45" fill="none" stroke="#f1e05a" stroke-opacity="0.15" stroke-width="2.00" stroke-linecap="round"/><path d="M-21.70 20.97L-24.76 20.66L-27.80 20.30L-30.83 19.90L-33.85 19.46L-36.84 18.98L-39.82 18.45" fill="none" stroke="#f1e05a" stroke-opacity="0.78" stroke-width="0.70" stroke-linecap="round"/></g><g><path d="M20.65 21.07L17.17 21.37L13.67 21.60L10.17 21.79L6.66 21.92L3.14 21.99L-0.37 22.01L-3.89 21.98L-7.41 21.89L-10.91 21.75L-14.42 21.56L-17.91 21.31L-21.39 21.00L-21.39 23.00L-17.91 23.31L-14.42 23.56L-10.91 23.75L-7.41 23.89L-3.89 23.98L-0.37 24.01L3.14 23.99L6.66 23.92L10.17 23.79L13.67 23.60L17.17 23.37L20.65 23.07Z" fill="#949786"/><path d="M20.65 21.07L17.17 21.37L13.67 21.60L10.17 21.79L6.66 21.92L3.14 21.99L-0.37 22.01L-3.89 21.98L-7.41 21.89L-10.91 21.75L-14.42 21.56L-17.91 21.31L-21.39 21.00L-19.10 12.98L-15.99 13.25L-12.87 13.47L-9.75 13.65L-6.61 13.77L-3.48 13.85L-0.33 13.88L2.81 13.86L5.95 13.80L9.08 13.68L12.21 13.52L15.33 13.30L18.44 13.04Z" fill="#7b7c65" fill-opacity="0.96"/><path d="M20.65 21.07L17.17 21.37L13.67 21.60L10.17 21.79L6.66 21.92L3.14 21.99L-0.37 22.01L-3.89 21.98L-7.41 21.89L-10.91 21.75L-14.42 21.56L-17.91 21.31L-21.39 21.00" fill="none" stroke="#f1e05a" stroke-opacity="0.15" stroke-width="2.00" stroke-linecap="round"/><path d="M20.65 21.07L17.17 21.37L13.67 21.60L10.17 21.79L6.66 21.92L3.14 21.99L-0.37 22.01L-3.89 21.98L-7.41 21.89L-10.91 21.75L-14.42 21.56L-17.91 21.31L-21.39 21.00" fill="none" stroke="#f1e05a" stroke-opacity="0.79" stroke-width="0.70" stroke-linecap="round"/></g><circle cx="0" cy="-4.95" r="8.80" fill="url(#core)"/><g><ellipse cx="10.00" cy="-64.57" rx="3.73" ry="2.16" fill="url(#sh)" opacity="0.11"/></g><g opacity="0.69"><polygon points="13.10,-64.57 13.10,-70.01 10.00,-68.22 10.00,-62.77" fill="url(#fr0)"/><polygon points="6.89,-64.57 6.89,-70.01 10.00,-68.22 10.00,-62.77" fill="url(#fl0)"/><polygon points="10.00,-71.80 13.10,-70.01 10.00,-68.22 6.89,-70.01" fill="url(#ft0)" stroke="#f1e05a" stroke-opacity="0.62" stroke-width="0.39" stroke-linejoin="round"/></g><g><ellipse cx="16.51" cy="-63.79" rx="3.73" ry="2.16" fill="url(#sh)" opacity="0.11"/></g><g opacity="0.69"><polygon points="19.62,-63.79 19.62,-67.84 16.51,-66.04 16.51,-62.00" fill="url(#fr0)"/><polygon points="13.41,-63.79 13.41,-67.84 16.51,-66.04 16.51,-62.00" fill="url(#fl0)"/><polygon points="16.51,-69.63 19.62,-67.84 16.51,-66.04 13.41,-67.84" fill="url(#ft0)" stroke="#f1e05a" stroke-opacity="0.62" stroke-width="0.39" stroke-linejoin="round"/></g><g><ellipse cx="22.86" cy="-62.64" rx="3.73" ry="2.16" fill="url(#sh)" opacity="0.11"/></g><g opacity="0.70"><polygon points="25.97,-62.64 25.97,-66.37 22.86,-64.57 22.86,-60.85" fill="url(#fr0)"/><polygon points="19.75,-62.64 19.75,-66.37 22.86,-64.57 22.86,-60.85" fill="url(#fl0)"/><polygon points="22.86,-68.16 25.97,-66.37 22.86,-64.57 19.75,-66.37" fill="url(#ft0)" stroke="#f1e05a" stroke-opacity="0.63" stroke-width="0.39" stroke-linejoin="round"/></g><g><ellipse cx="-26.26" cy="-61.85" rx="4.37" ry="2.52" fill="url(#sh)" opacity="0.11"/></g><g opacity="0.70"><polygon points="-22.62,-61.85 -22.62,-75.67 -26.26,-73.57 -26.26,-59.75" fill="url(#fr1)"/><polygon points="-29.90,-61.85 -29.90,-75.67 -26.26,-73.57 -26.26,-59.75" fill="url(#fl1)"/><polygon points="-23.24,-62.20 -23.24,-74.21 -25.64,-72.83 -25.64,-60.81" fill="url(#wr)" opacity="0.22"/><polygon points="-29.28,-62.20 -29.28,-74.21 -26.88,-72.83 -26.88,-60.81" fill="url(#wl)" opacity="0.12"/><polygon points="-26.26,-77.77 -22.62,-75.67 -26.26,-73.57 -29.90,-75.67" fill="url(#ft1)" stroke="#57e0b0" stroke-opacity="0.63" stroke-width="0.46" stroke-linejoin="round"/></g><g><ellipse cx="-37.92" cy="-58.07" rx="4.37" ry="2.52" fill="url(#sh)" opacity="0.11"/></g><g opacity="0.71"><polygon points="-34.28,-58.07 -34.28,-72.09 -37.92,-69.99 -37.92,-55.97" fill="url(#fr1)"/><polygon points="-41.56,-58.07 -41.56,-72.09 -37.92,-69.99 -37.92,-55.97" fill="url(#fl1)"/><polygon points="-34.90,-58.41 -34.90,-70.63 -37.30,-69.24 -37.30,-57.02" fill="url(#wr)" opacity="0.28"/><polygon points="-40.94,-58.41 -40.94,-70.63 -38.54,-69.24 -38.54,-57.02" fill="url(#wl)" opacity="0.15"/><polygon points="-37.92,-74.19 -34.28,-72.09 -37.92,-69.99 -41.56,-72.09" fill="url(#ft1)" stroke="#57e0b0" stroke-opacity="0.64" stroke-width="0.46" stroke-linejoin="round"/></g><g><ellipse cx="1.54" cy="-44.68" rx="3.52" ry="2.03" fill="url(#sh)" opacity="0.11"/></g><g opacity="0.72"><polygon points="4.47,-44.68 4.47,-49.74 1.54,-48.06 1.54,-42.99" fill="url(#fr3)"/><polygon points="-1.38,-44.68 -1.38,-49.74 1.54,-48.06 1.54,-42.99" fill="url(#fl3)"/><polygon points="1.54,-51.43 4.47,-49.74 1.54,-48.06 -1.38,-49.74" fill="url(#ft3)" stroke="#c9d24a" stroke-opacity="0.64" stroke-width="0.37" stroke-linejoin="round"/></g><g><ellipse cx="-4.72" cy="-44.55" rx="3.52" ry="2.03" fill="url(#sh)" opacity="0.11"/></g><g opacity="0.72"><polygon points="-1.79,-44.55 -1.79,-53.17 -4.72,-51.48 -4.72,-42.87" fill="url(#fr2)"/><polygon points="-7.64,-44.55 -7.64,-53.17 -4.72,-51.48 -4.72,-42.87" fill="url(#fl2)"/><polygon points="-4.72,-54.86 -1.79,-53.17 -4.72,-51.48 -7.64,-53.17" fill="url(#ft2)" stroke="#7fd0c0" stroke-opacity="0.64" stroke-width="0.37" stroke-linejoin="round"/></g><g><ellipse cx="-48.02" cy="-53.00" rx="4.37" ry="2.52" fill="url(#sh)" opacity="0.11"/></g><g opacity="0.72"><polygon points="-44.38,-53.00 -44.38,-67.08 -48.02,-64.98 -48.02,-50.90" fill="url(#fr1)"/><polygon points="-51.65,-53.00 -51.65,-67.08 -48.02,-64.98 -48.02,-50.90" fill="url(#fl1)"/><polygon points="-45.00,-53.34 -45.00,-65.62 -47.40,-64.24 -47.40,-51.96" fill="url(#wr)" opacity="0.27"/><polygon points="-51.04,-53.34 -51.04,-65.62 -48.64,-64.24 -48.64,-51.96" fill="url(#wl)" opacity="0.14"/><polygon points="-48.02,-69.18 -44.38,-67.08 -48.02,-64.98 -51.65,-67.08" fill="url(#ft1)" stroke="#57e0b0" stroke-opacity="0.65" stroke-width="0.46" stroke-linejoin="round"/></g><g><ellipse cx="-10.89" cy="-43.94" rx="3.52" ry="2.03" fill="url(#sh)" opacity="0.11"/></g><g opacity="0.72"><polygon points="-7.96,-43.94 -7.96,-53.15 -10.89,-51.46 -10.89,-42.25" fill="url(#fr2)"/><polygon points="-13.81,-43.94 -13.81,-53.15 -10.89,-51.46 -10.89,-42.25" fill="url(#fl2)"/><polygon points="-10.89,-54.83 -7.96,-53.15 -10.89,-51.46 -13.81,-53.15" fill="url(#ft2)" stroke="#7fd0c0" stroke-opacity="0.65" stroke-width="0.37" stroke-linejoin="round"/></g><g><ellipse cx="23.37" cy="-43.36" rx="3.95" ry="2.28" fill="url(#sh)" opacity="0.11"/></g><g opacity="0.72"><polygon points="26.66,-43.36 26.66,-47.40 23.37,-45.51 23.37,-41.46" fill="url(#fr0)"/><polygon points="20.09,-43.36 20.09,-47.40 23.37,-45.51 23.37,-41.46" fill="url(#fl0)"/><polygon points="23.37,-49.30 26.66,-47.40 23.37,-45.51 20.09,-47.40" fill="url(#ft0)" stroke="#f1e05a" stroke-opacity="0.65" stroke-width="0.42" stroke-linejoin="round"/></g><g><ellipse cx="30.21" cy="-40.82" rx="3.95" ry="2.28" fill="url(#sh)" opacity="0.12"/></g><g opacity="0.72"><polygon points="33.50,-40.82 33.50,-43.82 30.21,-41.92 30.21,-38.93" fill="url(#fr0)"/><polygon points="26.93,-40.82 26.93,-43.82 30.21,-41.92 30.21,-38.93" fill="url(#fl0)"/><polygon points="30.21,-45.72 33.50,-43.82 30.21,-41.92 26.93,-43.82" fill="url(#ft0)" stroke="#f1e05a" stroke-opacity="0.65" stroke-width="0.42" stroke-linejoin="round"/></g><g><ellipse cx="20.06" cy="-39.77" rx="3.92" ry="2.26" fill="url(#sh)" opacity="0.12"/></g><g opacity="0.73"><polygon points="23.33,-39.77 23.33,-44.97 20.06,-43.09 20.06,-37.89" fill="url(#fr0)"/><polygon points="16.80,-39.77 16.80,-44.97 20.06,-43.09 20.06,-37.89" fill="url(#fl0)"/><polygon points="20.06,-46.85 23.33,-44.97 20.06,-43.09 16.80,-44.97" fill="url(#ft0)" stroke="#f1e05a" stroke-opacity="0.65" stroke-width="0.41" stroke-linejoin="round"/></g><g><ellipse cx="25.94" cy="-37.59" rx="3.92" ry="2.26" fill="url(#sh)" opacity="0.12"/></g><g opacity="0.73"><polygon points="29.20,-37.59 29.20,-42.09 25.94,-40.21 25.94,-35.71" fill="url(#fr0)"/><polygon points="22.68,-37.59 22.68,-42.09 25.94,-40.21 25.94,-35.71" fill="url(#fl0)"/><polygon points="25.94,-43.98 29.20,-42.09 25.94,-40.21 22.68,-42.09" fill="url(#ft0)" stroke="#f1e05a" stroke-opacity="0.66" stroke-width="0.41" stroke-linejoin="round"/></g><g><ellipse cx="31.12" cy="-34.89" rx="3.92" ry="2.26" fill="url(#sh)" opacity="0.12"/></g><g opacity="0.74"><polygon points="34.38,-34.89 34.38,-39.08 31.12,-37.20 31.12,-33.01" fill="url(#fr0)"/><polygon points="27.86,-34.89 27.86,-39.08 31.12,-37.20 31.12,-33.01" fill="url(#fl0)"/><polygon points="31.12,-40.97 34.38,-39.08 31.12,-37.20 27.86,-39.08" fill="url(#ft0)" stroke="#f1e05a" stroke-opacity="0.66" stroke-width="0.41" stroke-linejoin="round"/></g><g><ellipse cx="41.26" cy="-34.06" rx="3.95" ry="2.28" fill="url(#sh)" opacity="0.12"/></g><g opacity="0.74"><polygon points="44.54,-34.06 44.54,-36.26 41.26,-34.36 41.26,-32.16" fill="url(#fr0)"/><polygon points="37.97,-34.06 37.97,-36.26 41.26,-34.36 41.26,-32.16" fill="url(#fl0)"/><polygon points="41.26,-38.16 44.54,-36.26 41.26,-34.36 37.97,-36.26" fill="url(#ft0)" stroke="#f1e05a" stroke-opacity="0.67" stroke-width="0.42" stroke-linejoin="round"/></g><g><ellipse cx="35.42" cy="-31.78" rx="3.78" ry="2.18" fill="url(#sh)" opacity="0.12"/></g><g opacity="0.74"><polygon points="38.56,-31.78 38.56,-38.42 35.42,-36.60 35.42,-29.97" fill="url(#fr0)"/><polygon points="32.27,-31.78 32.27,-38.42 35.42,-36.60 35.42,-29.97" fill="url(#fl0)"/><polygon points="35.42,-40.23 38.56,-38.42 35.42,-36.60 32.27,-38.42" fill="url(#ft0)" stroke="#f1e05a" stroke-opacity="0.67" stroke-width="0.40" stroke-linejoin="round"/></g><g><ellipse cx="-36.31" cy="-30.99" rx="3.95" ry="2.28" fill="url(#sh)" opacity="0.12"/></g><g opacity="0.75"><polygon points="-33.02,-30.99 -33.02,-36.16 -36.31,-34.26 -36.31,-29.09" fill="url(#fr0)"/><polygon points="-39.60,-30.99 -39.60,-36.16 -36.31,-34.26 -36.31,-29.09" fill="url(#fl0)"/><polygon points="-36.31,-38.06 -33.02,-36.16 -36.31,-34.26 -39.60,-36.16" fill="url(#ft0)" stroke="#f1e05a" stroke-opacity="0.67" stroke-width="0.42" stroke-linejoin="round"/></g><g><ellipse cx="66.41" cy="-38.54" rx="3.95" ry="2.28" fill="url(#sh)" opacity="0.12"/></g><g opacity="0.75"><polygon points="69.70,-38.54 69.70,-40.89 66.41,-38.99 66.41,-36.64" fill="url(#fr4)"/><polygon points="63.12,-38.54 63.12,-40.89 66.41,-38.99 66.41,-36.64" fill="url(#fl4)"/><polygon points="66.41,-42.78 69.70,-40.89 66.41,-38.99 63.12,-40.89" fill="url(#ft4)" stroke="#ff8fa3" stroke-opacity="0.67" stroke-width="0.42" stroke-linejoin="round"/></g><g><ellipse cx="38.73" cy="-28.40" rx="3.78" ry="2.18" fill="url(#sh)" opacity="0.12"/></g><g opacity="0.75"><polygon points="41.87,-28.40 41.87,-33.81 38.73,-32.00 38.73,-26.58" fill="url(#fr0)"/><polygon points="35.58,-28.40 35.58,-33.81 38.73,-32.00 38.73,-26.58" fill="url(#fl0)"/><polygon points="38.73,-35.63 41.87,-33.81 38.73,-32.00 35.58,-33.81" fill="url(#ft0)" stroke="#f1e05a" stroke-opacity="0.68" stroke-width="0.40" stroke-linejoin="round"/></g><g><ellipse cx="59.67" cy="-37.37" rx="3.95" ry="2.28" fill="url(#sh)" opacity="0.12"/></g><g opacity="0.75"><polygon points="62.95,-37.37 62.95,-40.47 59.67,-38.58 59.67,-35.47" fill="url(#fr4)"/><polygon points="56.38,-37.37 56.38,-40.47 59.67,-38.58 59.67,-35.47" fill="url(#fl4)"/><polygon points="59.67,-42.37 62.95,-40.47 59.67,-38.58 56.38,-40.47" fill="url(#ft4)" stroke="#ff8fa3" stroke-opacity="0.68" stroke-width="0.42" stroke-linejoin="round"/></g><g><ellipse cx="-46.52" cy="-28.18" rx="3.95" ry="2.28" fill="url(#sh)" opacity="0.12"/></g><g opacity="0.75"><polygon points="-43.24,-28.18 -43.24,-30.37 -46.52,-28.47 -46.52,-26.28" fill="url(#fr0)"/><polygon points="-49.81,-28.18 -49.81,-30.37 -46.52,-28.47 -46.52,-26.28" fill="url(#fl0)"/><polygon points="-46.52,-32.27 -43.24,-30.37 -46.52,-28.47 -49.81,-30.37" fill="url(#ft0)" stroke="#f1e05a" stroke-opacity="0.68" stroke-width="0.42" stroke-linejoin="round"/></g><g><ellipse cx="-39.94" cy="-26.74" rx="3.95" ry="2.28" fill="url(#sh)" opacity="0.12"/></g><g opacity="0.76"><polygon points="-36.65,-26.74 -36.65,-32.33 -39.94,-30.44 -39.94,-24.84" fill="url(#fr0)"/><polygon points="-43.23,-26.74 -43.23,-32.33 -39.94,-30.44 -39.94,-24.84" fill="url(#fl0)"/><polygon points="-39.94,-34.23 -36.65,-32.33 -39.94,-30.44 -43.23,-32.33" fill="url(#ft0)" stroke="#f1e05a" stroke-opacity="0.68" stroke-width="0.42" stroke-linejoin="round"/></g><g><ellipse cx="61.46" cy="-32.93" rx="3.95" ry="2.28" fill="url(#sh)" opacity="0.12"/></g><g opacity="0.76"><polygon points="64.74,-32.93 64.74,-35.32 61.46,-33.42 61.46,-31.03" fill="url(#fr4)"/><polygon points="58.17,-32.93 58.17,-35.32 61.46,-33.42 61.46,-31.03" fill="url(#fl4)"/><polygon points="61.46,-37.21 64.74,-35.32 61.46,-33.42 58.17,-35.32" fill="url(#ft4)" stroke="#ff8fa3" stroke-opacity="0.69" stroke-width="0.42" stroke-linejoin="round"/></g><g><ellipse cx="-49.04" cy="-22.86" rx="3.95" ry="2.28" fill="url(#sh)" opacity="0.12"/></g><g opacity="0.76"><polygon points="-45.75,-22.86 -45.75,-27.11 -49.04,-25.22 -49.04,-20.96" fill="url(#fr0)"/><polygon points="-52.32,-22.86 -52.32,-27.11 -49.04,-25.22 -49.04,-20.96" fill="url(#fl0)"/><polygon points="-49.04,-29.01 -45.75,-27.11 -49.04,-25.22 -52.32,-27.11" fill="url(#ft0)" stroke="#f1e05a" stroke-opacity="0.69" stroke-width="0.42" stroke-linejoin="round"/></g><g><ellipse cx="-42.10" cy="-22.17" rx="3.95" ry="2.28" fill="url(#sh)" opacity="0.12"/></g><g opacity="0.77"><polygon points="-38.81,-22.17 -38.81,-29.37 -42.10,-27.47 -42.10,-20.28" fill="url(#fr0)"/><polygon points="-45.38,-22.17 -45.38,-29.37 -42.10,-27.47 -42.10,-20.28" fill="url(#fl0)"/><polygon points="-42.10,-31.26 -38.81,-29.37 -42.10,-27.47 -45.38,-29.37" fill="url(#ft0)" stroke="#f1e05a" stroke-opacity="0.69" stroke-width="0.42" stroke-linejoin="round"/></g><g><ellipse cx="46.21" cy="-18.85" rx="3.62" ry="2.09" fill="url(#sh)" opacity="0.12"/></g><g opacity="0.77"><polygon points="49.22,-18.85 49.22,-26.37 46.21,-24.63 46.21,-17.11" fill="url(#fr5)"/><polygon points="43.20,-18.85 43.20,-26.37 46.21,-24.63 46.21,-17.11" fill="url(#fl5)"/><polygon points="46.21,-28.11 49.22,-26.37 46.21,-24.63 43.20,-26.37" fill="url(#ft5)" stroke="#8f6bff" stroke-opacity="0.70" stroke-width="0.38" stroke-linejoin="round"/></g><g><ellipse cx="-42.70" cy="-17.45" rx="3.95" ry="2.28" fill="url(#sh)" opacity="0.12"/></g><g opacity="0.78"><polygon points="-39.42,-17.45 -39.42,-25.13 -42.70,-23.24 -42.70,-15.55" fill="url(#fr0)"/><polygon points="-45.99,-17.45 -45.99,-25.13 -42.70,-23.24 -42.70,-15.55" fill="url(#fl0)"/><polygon points="-42.70,-27.03 -39.42,-25.13 -42.70,-23.24 -45.99,-25.13" fill="url(#ft0)" stroke="#f1e05a" stroke-opacity="0.70" stroke-width="0.42" stroke-linejoin="round"/></g><g><ellipse cx="-49.74" cy="-17.36" rx="3.95" ry="2.28" fill="url(#sh)" opacity="0.12"/></g><g opacity="0.78"><polygon points="-46.46,-17.36 -46.46,-22.47 -49.74,-20.58 -49.74,-15.46" fill="url(#fr0)"/><polygon points="-53.03,-17.36 -53.03,-22.47 -49.74,-20.58 -49.74,-15.46" fill="url(#fl0)"/><polygon points="-49.74,-24.37 -46.46,-22.47 -49.74,-20.58 -53.03,-22.47" fill="url(#ft0)" stroke="#f1e05a" stroke-opacity="0.70" stroke-width="0.42" stroke-linejoin="round"/></g><g><ellipse cx="21.65" cy="-6.94" rx="2.63" ry="1.52" fill="url(#sh)" opacity="0.12"/></g><g opacity="0.78"><polygon points="23.84,-6.94 23.84,-13.44 21.65,-12.17 21.65,-5.68" fill="url(#fr6)"/><polygon points="19.46,-6.94 19.46,-13.44 21.65,-12.17 21.65,-5.68" fill="url(#fl6)"/><polygon points="21.65,-14.70 23.84,-13.44 21.65,-12.17 19.46,-13.44" fill="url(#ft6)" stroke="#7fa8d0" stroke-opacity="0.70" stroke-width="0.28" stroke-linejoin="round"/></g><g><ellipse cx="26.28" cy="-6.50" rx="2.63" ry="1.52" fill="url(#sh)" opacity="0.12"/></g><g opacity="0.78"><polygon points="28.48,-6.50 28.48,-9.47 26.28,-8.21 26.28,-5.24" fill="url(#fr8)"/><polygon points="24.09,-6.50 24.09,-9.47 26.28,-8.21 26.28,-5.24" fill="url(#fl8)"/><polygon points="26.28,-10.74 28.48,-9.47 26.28,-8.21 24.09,-9.47" fill="url(#ft8)" stroke="#9fb0c0" stroke-opacity="0.70" stroke-width="0.28" stroke-linejoin="round"/></g><g><ellipse cx="30.92" cy="-6.06" rx="2.63" ry="1.52" fill="url(#sh)" opacity="0.13"/></g><g opacity="0.78"><polygon points="33.11,-6.06 33.11,-7.79 30.92,-6.53 30.92,-4.80" fill="url(#fr3)"/><polygon points="28.73,-6.06 28.73,-7.79 30.92,-6.53 30.92,-4.80" fill="url(#fl3)"/><polygon points="30.92,-9.06 33.11,-7.79 30.92,-6.53 28.73,-7.79" fill="url(#ft3)" stroke="#c9d24a" stroke-opacity="0.70" stroke-width="0.28" stroke-linejoin="round"/></g><g><ellipse cx="20.11" cy="-3.93" rx="2.63" ry="1.52" fill="url(#sh)" opacity="0.13"/></g><g opacity="0.79"><polygon points="22.30,-3.93 22.30,-10.07 20.11,-8.81 20.11,-2.66" fill="url(#fr7)"/><polygon points="17.92,-3.93 17.92,-10.07 20.11,-8.81 20.11,-2.66" fill="url(#fl7)"/><polygon points="20.11,-11.34 22.30,-10.07 20.11,-8.81 17.92,-10.07" fill="url(#ft7)" stroke="#ff5c33" stroke-opacity="0.71" stroke-width="0.28" stroke-linejoin="round"/></g><g><ellipse cx="24.41" cy="-2.84" rx="2.63" ry="1.52" fill="url(#sh)" opacity="0.13"/></g><g opacity="0.79"><polygon points="26.60,-2.84 26.60,-5.40 24.41,-4.13 24.41,-1.57" fill="url(#fr3)"/><polygon points="22.22,-2.84 22.22,-5.40 24.41,-4.13 24.41,-1.57" fill="url(#fl3)"/><polygon points="24.41,-6.66 26.60,-5.40 24.41,-4.13 22.22,-5.40" fill="url(#ft3)" stroke="#c9d24a" stroke-opacity="0.71" stroke-width="0.28" stroke-linejoin="round"/></g><g><ellipse cx="-64.83" cy="-20.40" rx="4.05" ry="2.34" fill="url(#sh)" opacity="0.13"/></g><g opacity="0.79"><polygon points="-61.46,-20.40 -61.46,-24.69 -64.83,-22.75 -64.83,-18.46" fill="url(#fr0)"/><polygon points="-68.20,-20.40 -68.20,-24.69 -64.83,-22.75 -64.83,-18.46" fill="url(#fl0)"/><polygon points="-64.83,-26.64 -61.46,-24.69 -64.83,-22.75 -68.20,-24.69" fill="url(#ft0)" stroke="#f1e05a" stroke-opacity="0.71" stroke-width="0.43" stroke-linejoin="round"/></g><g><ellipse cx="28.71" cy="-1.75" rx="2.63" ry="1.52" fill="url(#sh)" opacity="0.13"/></g><g opacity="0.79"><polygon points="30.90,-1.75 30.90,-3.35 28.71,-2.09 28.71,-0.49" fill="url(#fr9)"/><polygon points="26.52,-1.75 26.52,-3.35 28.71,-2.09 28.71,-0.49" fill="url(#fl9)"/><polygon points="28.71,-4.62 30.90,-3.35 28.71,-2.09 26.52,-3.35" fill="url(#ft9)" stroke="#8b98a8" stroke-opacity="0.71" stroke-width="0.28" stroke-linejoin="round"/></g><g><ellipse cx="17.32" cy="-1.22" rx="2.63" ry="1.52" fill="url(#sh)" opacity="0.13"/></g><g opacity="0.79"><polygon points="19.51,-1.22 19.51,-6.25 17.32,-4.99 17.32,0.04" fill="url(#fr4)"/><polygon points="15.13,-1.22 15.13,-6.25 17.32,-4.99 17.32,0.04" fill="url(#fl4)"/><polygon points="17.32,-7.52 19.51,-6.25 17.32,-4.99 15.13,-6.25" fill="url(#ft4)" stroke="#ff8fa3" stroke-opacity="0.71" stroke-width="0.28" stroke-linejoin="round"/></g><g><ellipse cx="21.03" cy="0.44" rx="2.63" ry="1.52" fill="url(#sh)" opacity="0.13"/></g><g opacity="0.80"><polygon points="23.22,0.44 23.22,-2.04 21.03,-0.77 21.03,1.71" fill="url(#fr7)"/><polygon points="18.84,0.44 18.84,-2.04 21.03,-0.77 21.03,1.71" fill="url(#fl7)"/><polygon points="21.03,-3.30 23.22,-2.04 21.03,-0.77 18.84,-2.04" fill="url(#ft7)" stroke="#ff5c33" stroke-opacity="0.72" stroke-width="0.28" stroke-linejoin="round"/></g><g><ellipse cx="-63.19" cy="-16.35" rx="4.05" ry="2.34" fill="url(#sh)" opacity="0.13"/></g><g opacity="0.80"><polygon points="-59.82,-16.35 -59.82,-22.21 -63.19,-20.26 -63.19,-14.40" fill="url(#fr0)"/><polygon points="-66.56,-16.35 -66.56,-22.21 -63.19,-20.26 -63.19,-14.40" fill="url(#fl0)"/><polygon points="-63.19,-24.15 -59.82,-22.21 -63.19,-20.26 -66.56,-22.21" fill="url(#ft0)" stroke="#f1e05a" stroke-opacity="0.72" stroke-width="0.43" stroke-linejoin="round"/></g><g><ellipse cx="24.73" cy="2.11" rx="2.63" ry="1.52" fill="url(#sh)" opacity="0.13"/></g><g opacity="0.80"><polygon points="26.93,2.11 26.93,0.51 24.73,1.77 24.73,3.37" fill="url(#fr9)"/><polygon points="22.54,2.11 22.54,0.51 24.73,1.77 24.73,3.37" fill="url(#fl9)"/><polygon points="24.73,-0.76 26.93,0.51 24.73,1.77 22.54,0.51" fill="url(#ft9)" stroke="#8b98a8" stroke-opacity="0.72" stroke-width="0.28" stroke-linejoin="round"/></g><g><ellipse cx="-60.59" cy="-12.15" rx="4.37" ry="2.52" fill="url(#sh)" opacity="0.13"/></g><g opacity="0.81"><polygon points="-56.96,-12.15 -56.96,-17.95 -60.59,-15.85 -60.59,-10.05" fill="url(#fr0)"/><polygon points="-64.23,-12.15 -64.23,-17.95 -60.59,-15.85 -60.59,-10.05" fill="url(#fl0)"/><polygon points="-60.59,-20.05 -56.96,-17.95 -60.59,-15.85 -64.23,-17.95" fill="url(#ft0)" stroke="#f1e05a" stroke-opacity="0.73" stroke-width="0.46" stroke-linejoin="round"/></g><g><ellipse cx="-57.00" cy="-7.98" rx="4.37" ry="2.52" fill="url(#sh)" opacity="0.13"/></g><g opacity="0.82"><polygon points="-53.36,-7.98 -53.36,-13.94 -57.00,-11.84 -57.00,-5.88" fill="url(#fr0)"/><polygon points="-60.63,-7.98 -60.63,-13.94 -57.00,-11.84 -57.00,-5.88" fill="url(#fl0)"/><polygon points="-57.00,-16.04 -53.36,-13.94 -57.00,-11.84 -60.63,-13.94" fill="url(#ft0)" stroke="#f1e05a" stroke-opacity="0.74" stroke-width="0.46" stroke-linejoin="round"/></g><g><ellipse cx="-52.54" cy="-4.10" rx="4.37" ry="2.52" fill="url(#sh)" opacity="0.13"/></g><g opacity="0.83"><polygon points="-48.90,-4.10 -48.90,-10.24 -52.54,-8.14 -52.54,-2.00" fill="url(#fr0)"/><polygon points="-56.18,-4.10 -56.18,-10.24 -52.54,-8.14 -52.54,-2.00" fill="url(#fl0)"/><polygon points="-52.54,-12.34 -48.90,-10.24 -52.54,-8.14 -56.18,-10.24" fill="url(#ft0)" stroke="#f1e05a" stroke-opacity="0.74" stroke-width="0.46" stroke-linejoin="round"/></g><g><ellipse cx="-47.30" cy="-0.57" rx="4.37" ry="2.52" fill="url(#sh)" opacity="0.13"/></g><g opacity="0.83"><polygon points="-43.66,-0.57 -43.66,-8.44 -47.30,-6.34 -47.30,1.53" fill="url(#fr0)"/><polygon points="-50.94,-0.57 -50.94,-8.44 -47.30,-6.34 -47.30,1.53" fill="url(#fl0)"/><polygon points="-47.30,-10.54 -43.66,-8.44 -47.30,-6.34 -50.94,-8.44" fill="url(#ft0)" stroke="#f1e05a" stroke-opacity="0.75" stroke-width="0.46" stroke-linejoin="round"/></g><g><ellipse cx="-50.54" cy="3.76" rx="4.37" ry="2.52" fill="url(#sh)" opacity="0.14"/></g><g opacity="0.86"><polygon points="-46.90,3.76 -46.90,-10.55 -50.54,-8.45 -50.54,5.86" fill="url(#fr0)"/><polygon points="-54.17,3.76 -54.17,-10.55 -50.54,-8.45 -50.54,5.86" fill="url(#fl0)"/><polygon points="-47.52,3.42 -47.52,-9.10 -49.92,-7.71 -49.92,4.81" fill="url(#wr)" opacity="0.20"/><polygon points="-53.56,3.42 -53.56,-9.10 -51.16,-7.71 -51.16,4.81" fill="url(#wl)" opacity="0.10"/><polygon points="-50.54,-12.65 -46.90,-10.55 -50.54,-8.45 -54.17,-10.55" fill="url(#ft0)" stroke="#f1e05a" stroke-opacity="0.78" stroke-width="0.46" stroke-linejoin="round"/></g><g><ellipse cx="84.09" cy="-0.90" rx="4.37" ry="2.52" fill="url(#sh)" opacity="0.14"/></g><g opacity="0.89"><polygon points="87.73,-0.90 87.73,-6.82 84.09,-4.72 84.09,1.20" fill="url(#fr0)"/><polygon points="80.46,-0.90 80.46,-6.82 84.09,-4.72 84.09,1.20" fill="url(#fl0)"/><polygon points="84.09,-8.92 87.73,-6.82 84.09,-4.72 80.46,-6.82" fill="url(#ft0)" stroke="#f1e05a" stroke-opacity="0.80" stroke-width="0.46" stroke-linejoin="round"/></g><g><ellipse cx="75.55" cy="3.22" rx="4.37" ry="2.52" fill="url(#sh)" opacity="0.14"/></g><g opacity="0.90"><polygon points="79.19,3.22 79.19,-0.94 75.55,1.16 75.55,5.32" fill="url(#fr0)"/><polygon points="71.91,3.22 71.91,-0.94 75.55,1.16 75.55,5.32" fill="url(#fl0)"/><polygon points="75.55,-3.04 79.19,-0.94 75.55,1.16 71.91,-0.94" fill="url(#ft0)" stroke="#f1e05a" stroke-opacity="0.81" stroke-width="0.46" stroke-linejoin="round"/></g><g><ellipse cx="66.41" cy="6.88" rx="4.37" ry="2.52" fill="url(#sh)" opacity="0.15"/></g><g opacity="0.91"><polygon points="70.04,6.88 70.04,3.80 66.41,5.90 66.41,8.98" fill="url(#fr0)"/><polygon points="62.77,6.88 62.77,3.80 66.41,5.90 66.41,8.98" fill="url(#fl0)"/><polygon points="66.41,1.70 70.04,3.80 66.41,5.90 62.77,3.80" fill="url(#ft0)" stroke="#f1e05a" stroke-opacity="0.82" stroke-width="0.46" stroke-linejoin="round"/></g><g><ellipse cx="56.73" cy="10.06" rx="4.37" ry="2.52" fill="url(#sh)" opacity="0.15"/></g><g opacity="0.92"><polygon points="60.37,10.06 60.37,7.20 56.73,9.30 56.73,12.16" fill="url(#fr0)"/><polygon points="53.09,10.06 53.09,7.20 56.73,9.30 56.73,12.16" fill="url(#fl0)"/><polygon points="56.73,5.10 60.37,7.20 56.73,9.30 53.09,7.20" fill="url(#ft0)" stroke="#f1e05a" stroke-opacity="0.83" stroke-width="0.46" stroke-linejoin="round"/></g><g><ellipse cx="-56.26" cy="10.20" rx="4.37" ry="2.52" fill="url(#sh)" opacity="0.15"/></g><g opacity="0.92"><polygon points="-52.62,10.20 -52.62,6.05 -56.26,8.15 -56.26,12.30" fill="url(#fr0)"/><polygon points="-59.89,10.20 -59.89,6.05 -56.26,8.15 -56.26,12.30" fill="url(#fl0)"/><polygon points="-56.26,3.95 -52.62,6.05 -56.26,8.15 -59.89,6.05" fill="url(#ft0)" stroke="#f1e05a" stroke-opacity="0.83" stroke-width="0.46" stroke-linejoin="round"/></g><g><ellipse cx="46.60" cy="12.73" rx="4.37" ry="2.52" fill="url(#sh)" opacity="0.15"/></g><g opacity="0.92"><polygon points="50.24,12.73 50.24,10.11 46.60,12.21 46.60,14.83" fill="url(#fr0)"/><polygon points="42.96,12.73 42.96,10.11 46.60,12.21 46.60,14.83" fill="url(#fl0)"/><polygon points="46.60,8.01 50.24,10.11 46.60,12.21 42.96,10.11" fill="url(#ft0)" stroke="#f1e05a" stroke-opacity="0.83" stroke-width="0.46" stroke-linejoin="round"/></g><g><ellipse cx="-44.11" cy="13.29" rx="4.37" ry="2.52" fill="url(#sh)" opacity="0.15"/></g><g opacity="0.92"><polygon points="-40.47,13.29 -40.47,9.12 -44.11,11.22 -44.11,15.39" fill="url(#fr0)"/><polygon points="-47.74,13.29 -47.74,9.12 -44.11,11.22 -44.11,15.39" fill="url(#fl0)"/><polygon points="-44.11,7.02 -40.47,9.12 -44.11,11.22 -47.74,9.12" fill="url(#ft0)" stroke="#f1e05a" stroke-opacity="0.83" stroke-width="0.46" stroke-linejoin="round"/></g><g><ellipse cx="36.10" cy="14.86" rx="4.37" ry="2.52" fill="url(#sh)" opacity="0.15"/></g><g opacity="0.93"><polygon points="39.74,14.86 39.74,12.47 36.10,14.57 36.10,16.96" fill="url(#fr0)"/><polygon points="32.46,14.86 32.46,12.47 36.10,14.57 36.10,16.96" fill="url(#fl0)"/><polygon points="36.10,10.37 39.74,12.47 36.10,14.57 32.46,12.47" fill="url(#ft0)" stroke="#f1e05a" stroke-opacity="0.84" stroke-width="0.46" stroke-linejoin="round"/></g><g><ellipse cx="-29.18" cy="15.95" rx="4.37" ry="2.52" fill="url(#sh)" opacity="0.15"/></g><g opacity="0.93"><polygon points="-25.55,15.95 -25.55,8.32 -29.18,10.42 -29.18,18.05" fill="url(#fr0)"/><polygon points="-32.82,15.95 -32.82,8.32 -29.18,10.42 -29.18,18.05" fill="url(#fl0)"/><polygon points="-29.18,6.22 -25.55,8.32 -29.18,10.42 -32.82,8.32" fill="url(#ft0)" stroke="#f1e05a" stroke-opacity="0.84" stroke-width="0.46" stroke-linejoin="round"/></g><g><ellipse cx="25.31" cy="16.45" rx="4.37" ry="2.52" fill="url(#sh)" opacity="0.15"/></g><g opacity="0.93"><polygon points="28.95,16.45 28.95,14.19 25.31,16.29 25.31,18.55" fill="url(#fr0)"/><polygon points="21.68,16.45 21.68,14.19 25.31,16.29 25.31,18.55" fill="url(#fl0)"/><polygon points="25.31,12.09 28.95,14.19 25.31,16.29 21.68,14.19" fill="url(#ft0)" stroke="#f1e05a" stroke-opacity="0.84" stroke-width="0.46" stroke-linejoin="round"/></g><g><ellipse cx="-15.30" cy="17.40" rx="4.37" ry="2.52" fill="url(#sh)" opacity="0.15"/></g><g opacity="0.93"><polygon points="-11.66,17.40 -11.66,15.80 -15.30,17.90 -15.30,19.50" fill="url(#fr0)"/><polygon points="-18.94,17.40 -18.94,15.80 -15.30,17.90 -15.30,19.50" fill="url(#fl0)"/><polygon points="-15.30,13.70 -11.66,15.80 -15.30,17.90 -18.94,15.80" fill="url(#ft0)" stroke="#f1e05a" stroke-opacity="0.84" stroke-width="0.46" stroke-linejoin="round"/></g><g><ellipse cx="14.60" cy="17.45" rx="4.37" ry="2.52" fill="url(#sh)" opacity="0.15"/></g><g opacity="0.93"><polygon points="18.23,17.45 18.23,12.23 14.60,14.33 14.60,19.55" fill="url(#fr0)"/><polygon points="10.96,17.45 10.96,12.23 14.60,14.33 14.60,19.55" fill="url(#fl0)"/><polygon points="14.60,10.13 18.23,12.23 14.60,14.33 10.96,12.23" fill="url(#ft0)" stroke="#f1e05a" stroke-opacity="0.84" stroke-width="0.46" stroke-linejoin="round"/></g><g><ellipse cx="-5.35" cy="17.88" rx="4.37" ry="2.52" fill="url(#sh)" opacity="0.15"/></g><g opacity="0.93"><polygon points="-1.71,17.88 -1.71,16.16 -5.35,18.26 -5.35,19.98" fill="url(#fr0)"/><polygon points="-8.98,17.88 -8.98,16.16 -5.35,18.26 -5.35,19.98" fill="url(#fl0)"/><polygon points="-5.35,14.06 -1.71,16.16 -5.35,18.26 -8.98,16.16" fill="url(#ft0)" stroke="#f1e05a" stroke-opacity="0.84" stroke-width="0.46" stroke-linejoin="round"/></g><g><ellipse cx="4.64" cy="17.90" rx="4.37" ry="2.52" fill="url(#sh)" opacity="0.15"/></g><g opacity="0.93"><polygon points="8.28,17.90 8.28,15.73 4.64,17.83 4.64,20.00" fill="url(#fr0)"/><polygon points="1.00,17.90 1.00,15.73 4.64,17.83 4.64,20.00" fill="url(#fl0)"/><polygon points="4.64,13.63 8.28,15.73 4.64,17.83 1.00,15.73" fill="url(#ft0)" stroke="#f1e05a" stroke-opacity="0.84" stroke-width="0.46" stroke-linejoin="round"/></g>
<g font-family="ui-monospace,SFMono-Regular,Menlo,Consolas,monospace"><line x1="-146.67" y1="36.59" x2="167.42" y2="36.59" stroke="rgba(30,50,90,0.14)" stroke-width="0.20"/><text x="-146.67" y="48.05" font-size="8.51" font-weight="600" letter-spacing="0.10" fill="#16202f">iLevyTate/reposense</text><text x="167.42" y="48.05" font-size="5.56" letter-spacing="0.46" fill="#78879c" text-anchor="end">REPOSENSE</text><text x="-146.67" y="55.83" font-size="5.56" fill="#78879c">58 files  ·  4.9 MB  ·  21 folders  ·  depth 6</text><rect x="-146.67" y="60.41" width="198.18" height="1.80" rx="0.90" fill="#57e0b0"/><rect x="52.10" y="60.41" width="100.45" height="1.80" rx="0.90" fill="#f1e05a"/><rect x="153.14" y="60.41" width="8.11" height="1.80" rx="0.90" fill="#7fd0c0"/><rect x="161.84" y="60.41" width="5.58" height="1.80" rx="0.90" fill="#78879c" fill-opacity="0.4"/><circle cx="-144.87" cy="65.48" r="1.80" fill="#57e0b0"/><text x="-141.11" y="67.28" font-size="5.56" fill="#4a5a70">Image 63%</text><circle cx="-101.73" cy="65.48" r="1.80" fill="#f1e05a"/><text x="-97.97" y="67.28" font-size="5.56" fill="#4a5a70">JavaScript 32%</text><circle cx="-41.35" cy="65.48" r="1.80" fill="#7fd0c0"/><text x="-37.58" y="67.28" font-size="5.56" fill="#4a5a70">XML 2.6%</text><circle cx="-1.65" cy="65.48" r="1.80" fill="#8f6bff"/><text x="2.11" y="67.28" font-size="5.56" fill="#4a5a70">CSS 0.6%</text><circle cx="38.04" cy="65.48" r="1.80" fill="#7fa8d0"/><text x="41.80" y="67.28" font-size="5.56" fill="#4a5a70">Markdown 0.3%</text><circle cx="94.98" cy="65.48" r="1.80" fill="#ff5c33"/><text x="98.74" y="67.28" font-size="5.56" fill="#4a5a70">HTML 0.3%</text></g>
</svg>
